<?xml version="1.0" encoding="UTF-8"?>
<svg id="Layer_2" data-name="Layer 2" xmlns="http://www.w3.org/2000/svg" viewBox="0 0 1080 1920">
  <defs>
    <style>

      .cls-2 {
        fill: #80000000;
        opacity: .50;
      }
    </style>
  </defs>
  <g  data-name="Layer 1">
    <g>
      <path class="cls-2" d="M0,0v1920h1080V0H0ZM1000,1212.91c0,24.9-20.19,45.09-45.09,45.09H125.09c-24.9,0-45.09-20.19-45.09-45.09v-505.82c0-24.9,20.19-45.09,45.09-45.09h829.82c24.9,0,45.09,20.19,45.09,45.09v505.82Z"/>
      <g>
        <g>
          <path id="Layer_1-1" d="M87.87,808.75c-4.19,0-7.58-3.39-7.58-7.58v-85.93c0-17.47,9.51-50.52,45.48-50.52h84.58c4.19,0,7.58,3.39,7.58,7.58s-3.39,7.58-7.58,7.58h-84.58c-29.26,0-30.3,31.76-30.32,35.38v85.91c0,4.19-3.39,7.58-7.58,7.58Z"/>
          <path id="Layer_1-2" d="M855.67,673.91c0-4.19,3.39-7.58,7.58-7.58h85.93c17.47,0,50.52,9.51,50.52,45.48v84.58c0,4.19-3.39,7.58-7.58,7.58s-7.58-3.39-7.58-7.58v-84.58c0-29.26-31.76-30.3-35.38-30.32h-85.91c-4.19,0-7.58-3.39-7.58-7.58Z"/>
        </g>
        <g>
          <path id="Layer_1-3" d="M992.13,1110.39c4.19,0,7.58,3.39,7.58,7.58v85.93c0,17.47-9.51,50.52-45.48,50.52h-84.58c-4.19,0-7.58-3.39-7.58-7.58s3.39-7.58,7.58-7.58h84.58c29.26,0,30.3-31.76,30.32-35.38v-85.91c0-4.19,3.39-7.58,7.58-7.58Z"/>
          <path id="Layer_1-4" d="M224.33,1245.23c0,4.19-3.39,7.58-7.58,7.58h-85.93c-17.47,0-50.52-9.51-50.52-45.48v-84.58c0-4.19,3.39-7.58,7.58-7.58s7.58,3.39,7.58,7.58v84.58c0,29.26,31.76,30.3,35.38,30.32h85.91c4.19,0,7.58,3.39,7.58,7.58Z"/>
        </g>
      </g>
    </g>
  </g>
</svg>
