<svg xmlns="http://www.w3.org/2000/svg" xmlns:android="http://schemas.android.com/apk/res/android" width="1024dp" height="1024dp" viewportWidth="1024" viewportHeight="1024">
	<path d="M0,0C337.9,0 675.8,0 1024,0C1024,337.9 1024,675.8 1024,1024C686.1,1024 348.2,1024 0,1024C0,686.1 0,348.2 0,0Z" fill="#00000000" fill-opacity="0" />
	<path d="M522,358C523.2,358 524.5,358 525.8,358.1C558.3,359.3 590.7,375.1 615,396C615.9,396.7 616.7,397.5 617.6,398.2C627.6,407 635.7,416.8 643,428C643.4,428.6 643.8,429.1 644.1,429.7C666.3,463.7 672.8,504.6 664.6,544.1C659,569.7 647.3,593.3 630,613C629.3,613.9 628.6,614.7 627.8,615.6C622.4,621.8 616.5,627 610,632C609.1,632.7 608.1,633.5 607.2,634.2C599.3,640.4 590.9,645.4 582,650C581.1,650.5 580.2,650.9 579.3,651.4C548.3,666.5 510.6,671 477,663C476.3,662.8 475.6,662.7 474.9,662.5C456.3,658 438.6,650 423,639C422.4,638.6 421.8,638.2 421.2,637.8C405.9,626.8 392,613.1 382,597C381.6,596.4 381.3,595.9 380.9,595.3C370.2,577.8 362.6,559.3 359,539C358.8,538.1 358.7,537.1 358.5,536.2C357.1,528.1 356.6,520.2 356.7,511.9C356.7,510.7 356.7,509.4 356.7,508.1C357.2,466.4 375.3,428 405,399C408.5,395.8 412.2,392.9 416,390C416.8,389.4 417.5,388.8 418.3,388.2C448.9,365.9 484.5,356.8 522,358Z" fill="#00000000" fill-opacity="0" />
	<path d="M522,358C523.2,358 524.5,358 525.8,358.1C558.3,359.3 590.7,375.1 615,396C615.9,396.7 616.7,397.5 617.6,398.2C627.6,407 635.7,416.8 643,428C643.4,428.6 643.8,429.1 644.1,429.7C666.3,463.7 672.8,504.6 664.6,544.1C659,569.7 647.3,593.3 630,613C629.3,613.9 628.6,614.7 627.8,615.6C622.4,621.8 616.5,627 610,632C609.1,632.7 608.1,633.5 607.2,634.2C599.3,640.4 590.9,645.4 582,650C581.1,650.5 580.2,650.9 579.3,651.4C548.3,666.5 510.6,671 477,663C476.3,662.8 475.6,662.7 474.9,662.5C456.3,658 438.6,650 423,639C422.4,638.6 421.8,638.2 421.2,637.8C405.9,626.8 392,613.1 382,597C381.6,596.4 381.3,595.9 380.9,595.3C370.2,577.8 362.6,559.3 359,539C358.8,538.1 358.7,537.1 358.5,536.2C357.1,528.1 356.6,520.2 356.7,511.9C356.7,510.7 356.7,509.4 356.7,508.1C357.2,466.4 375.3,428 405,399C408.5,395.8 412.2,392.9 416,390C416.8,389.4 417.5,388.8 418.3,388.2C448.9,365.9 484.5,356.8 522,358ZM473.3,376.1C472.6,376.3 471.8,376.6 471.1,376.8C449,383.3 429.8,394.3 413,410C412.2,410.7 411.4,411.5 410.5,412.2C385,436.3 371,472.8 369.8,507.2C368.9,545.4 382.3,581.5 408.4,609.4C434.8,637 471,652.1 509,653.3C539.7,653.8 571.4,644.5 596,626C596.8,625.4 597.7,624.8 598.5,624.1C601.1,622.1 603.5,620.1 606,618C607,617.2 607.9,616.4 608.9,615.5C629.2,597.9 642.7,573.7 650,548C650.2,547.3 650.4,546.5 650.6,545.8C657.3,522.1 656.2,494.4 649,471C648.8,470.3 648.6,469.5 648.3,468.8C637.5,434.3 612,404.5 580.1,387.8C559.6,377.4 538.7,371.8 515.7,371.8C513.5,371.8 511.2,371.8 509,371.8C496.8,371.7 485,372.8 473.3,376.1Z" fill="#E31212"/>
	<path d="M557.5,552.8C561.4,556.2 565.1,559.6 568,564C567.8,567.1 567.4,569.3 565.9,571.9C564,573 564,573 560.8,573.2C556.8,571.9 556.3,571.5 553.9,568.4C546.1,558.7 533,553.9 521,552C503.4,550.1 487.6,554.3 473.3,565C471.4,566.7 470,568.1 468.6,570.3C466,573 466,573 462.9,573.6C460,573 460,573 458.1,571.9C456.8,569.7 456.2,567.7 456.3,565.1C459,556.6 468.3,550.9 475.5,546.8C500.8,533.9 534.9,533.9 557.5,552.8Z" fill="#E31111"/>
	<path d="M462,457.4C465.8,458.1 466.7,458.9 469,462C469.6,465 469.6,467.9 469.6,471C469.6,472.3 469.6,472.3 469.6,473.6C469.6,475.5 469.6,477.3 469.6,479.2C469.6,482 469.6,484.8 469.6,487.6C469.6,489.4 469.6,491.2 469.6,493C469.6,493.8 469.7,494.7 469.7,495.6C469.6,499.8 469.6,501.4 466.6,504.6C464,506 464,506 461.4,506C458.4,504.7 457,503.7 455,501C454.6,498 454.4,495.4 454.5,492.5C454.5,491.6 454.5,490.8 454.5,490C454.5,488.2 454.5,486.5 454.5,484.7C454.5,482.1 454.5,479.4 454.5,476.8C454.5,475.1 454.5,473.4 454.5,471.7C454.5,470.9 454.5,470.1 454.4,469.3C454.5,465.4 454.8,463.4 456.8,460C459,458 459,458 462,457.4Z" fill="#E51415"/>
	<path d="M562,457.4C565,458 565,458 567.2,460C569.6,464 569.6,467 569.6,471.6C569.6,472.9 569.6,472.9 569.6,474.1C569.6,475.9 569.6,477.6 569.6,479.3C569.6,482 569.6,484.6 569.6,487.3C569.6,489 569.6,490.7 569.6,492.4C569.6,493.2 569.7,494 569.7,494.8C569.6,499 569.3,500.6 566.6,504C564,506 564,506 561.4,506.1C558.4,504.7 557,503.7 555,501C554.6,498 554.4,495.4 554.5,492.5C554.5,491.6 554.5,490.8 554.5,490C554.5,488.2 554.5,486.5 554.5,484.7C554.5,482.1 554.5,479.4 554.5,476.8C554.5,475.1 554.5,473.4 554.5,471.7C554.5,470.9 554.5,470.1 554.4,469.3C554.5,465.4 554.8,463.4 556.8,460C559,458 559,458 562,457.4Z" fill="#E41516"/>
	<path d="M715.6,241.9C719.6,243.2 721,244.2 723,248C723.1,251.9 722.5,253.5 719.9,256.4C717,258 717,258 713.4,258C710,257 710,257 708.1,255.3C706.6,252.2 706.4,250.4 707,247C709.7,243.2 710.9,242 715.6,241.9Z" fill="#E21415"/>
	<path d="M287.6,259.9C291.6,261.2 293,262.2 295,266C295,269.6 294.4,271.4 292.3,274.4C290,276 290,276 287.1,276.6C282.9,275.8 281.5,274.4 279,271C278.4,268 278.4,268 279,265C281.7,261.2 282.9,260 287.6,259.9Z" fill="#E41415"/>
	<path d="M337,226C339.4,227.6 339.4,227.6 341,230C341.6,232.9 341.6,232.9 341,236C338.5,239.3 337.1,240.8 333,241.6C328.9,240.8 327.4,239.4 325,236C324.9,232.2 325.1,230 327.6,227.1C331,225.6 333.4,225.5 337,226Z" fill="#E31111"/>
	<path d="M695,226C697.6,228.1 697.6,228.1 699,231C699,234.8 698.8,237 696.3,239.9C693.2,241.4 691.4,241.6 688,241C685.1,238.9 685.1,238.9 683,236C683,232.5 683.4,230.2 685.1,227.1C688.3,225.3 691.5,225.3 695,226Z" fill="#E31212"/>
	<path d="M472,178C474.9,180.1 474.9,180.1 477,183C477.1,186.6 476.4,188.4 474.4,191.4C471,193.7 468.9,193.6 465,193C462.6,191.4 462.6,191.4 461,189C460.4,185.5 460.4,185.5 461,182C464.3,178.2 467.1,177.1 472,178Z" fill="#E31212"/>
	<path d="M408,819C410.4,821.2 410.4,821.2 412,824C411.9,827.2 411.6,829.2 409.8,831.8C407.4,833.4 405.9,833.9 403,834C397.4,831.7 397.4,831.7 396,829C395.7,825.7 395.6,823.6 397.3,820.7C400.6,817.4 403.7,817.8 408,819Z" fill="#E31414"/>
	<path d="M743,262C745.3,265.5 745.6,266.9 745,271C742.9,273.9 742.9,273.9 740,276C736.4,276 734.1,275.7 731.1,273.8C729.6,271.4 729.1,269.8 729,267C730.2,264.2 731.4,262.5 733.8,260.6C737.3,259.7 739.7,260.7 743,262Z" fill="#E31212"/>
	<path d="M390,201C392.1,202.6 392.1,202.6 393,205C392.9,208.8 392.8,211.1 390.3,213.9C387.2,215.4 385.4,215.6 382,215C379.1,212.9 379.1,212.9 377,210C376.9,206.2 377.2,204 379.6,201C383.2,199.5 386.3,199.9 390,201Z" fill="#E21212"/>
	<path d="M312,242C314.9,244.1 314.9,244.1 317,247C317,250.5 316.7,252.9 314.9,255.9C311.9,257.7 309.4,257.4 306,257C303.6,255.9 303.6,255.9 302,254C300.8,250.3 300.7,248.7 302.3,245.2C305.1,241.6 307.5,241.5 312,242Z" fill="#E31313"/>
	<path d="M435,828C437.8,830 438.8,831.1 439.6,834.4C438.7,838.2 437,839.7 434,842C431,842.6 431,842.6 428,842C425.1,839.9 425.1,839.9 423,837C422.9,833.2 423.2,831 425.6,828C429.1,826.5 431.4,827 435,828Z" fill="#E31314"/>
	<path d="M220,351C222.5,352.6 222.5,352.6 224,355C224.6,357.9 224.6,357.9 224,361C221.9,363.9 221.9,363.9 219,366C214.7,366.2 212.8,365.7 209.5,362.8C208,360 208,360 208.1,356.9C210.1,350.7 213.7,349.9 220,351Z" fill="#E20F0F"/>
	<path d="M588,184C590.5,185.6 590.5,185.6 592,188C592.6,191.6 592.5,193.3 590.4,196.3C587.4,198.4 585.7,199.1 582,199C578.6,197 578.6,197 576,194C575.9,190.4 576.3,188.2 578.1,185.1C581.3,183.3 584.5,183.4 588,184Z" fill="#E21313"/>
	<path d="M560,179C561.9,180.1 561.9,180.1 563,182C563.5,185.6 563.6,188.7 562,192C558.7,193.6 555.5,193.6 552,193C549.5,191.4 549.5,191.4 548,189C547.4,185.5 547.4,185.5 548,182C551.7,177.5 554.6,177.5 560,179Z" fill="#E31211"/>
	<path d="M699.9,781.6C702,782 702,782 704.1,783.6C705.3,786.7 705.5,788.7 705,792C703.4,794.9 703.4,794.9 701,797C698.1,797.6 698.1,797.6 695,797C691.6,794.5 690.2,793.1 689.5,788.9C690.6,782.2 693.5,781.3 699.9,781.6Z" fill="#E31010"/>
	<path d="M501,175C503.4,176 503.4,176 505,178C505.6,182.5 505.8,184.7 503.4,188.5C500.2,190.5 498.7,190.7 495,190C491.6,187.5 490.2,186.1 489.4,181.9C490,179 490,179 491.6,176.6C494.9,174.4 497,174.5 501,175Z" fill="#E31111"/>
	<path d="M677,797C679.4,798.6 679.4,798.6 681,801C681,804.8 680.8,807 678.4,809.9C675,811.5 672.7,811.5 669,811C666.5,808.9 666.5,808.9 665,806C664.9,802.4 664.9,802.4 666,799C669.6,795.7 672.4,795.5 677,797Z" fill="#E31413"/>
	<path d="M530,176C532.4,177 532.4,177 534,179C534.5,182.2 534.7,184 534,187C531.9,189.6 531.9,189.6 529,191C525.2,191 523,190.8 520.1,188.3C518.7,185.3 518.5,183.3 519,180C522,175.5 524.9,175.4 530,176Z" fill="#E31010"/>
	<path d="M464,833C466,834.6 466,834.6 467,837C466.9,840.4 466.6,843 464.9,845.9C461.8,847.7 459.4,847.4 456,847C453.3,845.1 452.3,843.6 451,840.6C451,836.9 452.5,835.5 455,833C458.2,831.4 460.6,832.2 464,833Z" fill="#E41111"/>
	<path d="M799,680C801.4,681.5 801.4,681.5 803,684C803.6,687 803.4,688.9 803,692C800.7,694.9 799.2,695 795.5,695.5C792,695 792,695 789.5,692.9C787.5,689.1 787.8,687.1 789,683C791.9,679.7 794.7,679.4 799,680Z" fill="#E31414"/>
	<path d="M848,545C850.5,547.1 850.5,547.1 852,550C851.9,553.5 851.6,555.9 849.9,558.9C846.8,560.7 844.4,560.4 841,560C838.6,558.4 838.6,558.4 837,556C836.4,552.1 836.4,549.9 838.6,546.6C842,544.4 844,544.4 848,545Z" fill="#E31211"/>
	<path d="M362,212C364.4,213.6 364.4,213.6 366,216C366.4,219.4 366.7,221.8 364.9,224.9C361.9,226.6 359.5,226.9 356,227C353.1,225.5 353.1,225.5 351,223C350.4,219 350.4,217 352.6,213.6C355.9,211.4 358.1,211.4 362,212Z" fill="#E31010"/>
	<path d="M622.1,819C625.5,820.2 627,821 629,824C629,827.8 628.8,830 626.4,832.9C623,834.5 620.7,834.5 617,834C614.5,831.9 614.5,831.9 613,829C612.9,825 613.5,823.5 616.2,820.6C619,819 619,819 622.1,819Z" fill="#E41212"/>
	<path d="M416,191C418.4,192.6 418.4,192.6 420,195C420.4,198.4 420.7,200.8 418.9,203.9C415.9,205.6 413.5,205.9 410,206C407.1,204.5 407.1,204.5 405,202C404.4,198 404.4,196 406.6,192.6C409.9,190.4 412.1,190.4 416,191Z" fill="#E41212"/>
	<path d="M615,191C617.9,193.1 617.9,193.1 620,196C620.1,199.6 620.1,199.6 619,203C616.2,205.5 614.7,206 610.9,206C607.2,204.7 605.9,203.5 604,200C604,196.5 604.3,194.8 606.7,192.1C609.8,190.6 611.6,190.4 615,191Z" fill="#E31212"/>
	<path d="M848.1,516.1C852.6,517.5 852.6,517.5 854,520C854.4,523.1 854.6,525 854,528C851.9,530.6 851.9,530.6 849,532C845,532.1 843.5,531.5 840.6,528.8C839,526 839,526 838.9,522.9C840.7,518.2 843,516 848.1,516.1Z" fill="#E31112"/>
	<path d="M179.1,487.6C181,488 181,488 183.5,489.6C185.5,492.8 185.7,494.3 185,498C182.9,500.9 182.9,500.9 180,503C176.1,503.1 174,502.9 171.1,500.3C169.7,497.3 169.6,495.3 170,492C171.8,487.6 174.5,487.4 179.1,487.6Z" fill="#E31313"/>
	<path d="M177.6,516C182.6,517.5 182.6,517.5 184,520C184.4,523.6 184.4,526.1 183,529.4C180.4,531.5 178.2,531.6 174.9,531.5C173,531 173,531 170.5,528.8C168.9,525.7 168.2,524.4 169,521C171.7,517.2 172.9,516 177.6,516Z" fill="#E21212"/>
	<path d="M251,303C253.4,304.6 253.4,304.6 255,307C255.6,311 255.6,313.1 253.4,316.4C250.2,318.5 248.7,318.7 245,318C242.1,315.9 242.1,315.9 240,313C239.9,309.1 240.1,307 242.7,304.1C245.7,302.7 247.7,302.5 251,303Z" fill="#E31515"/>
	<path d="M570,834C572.6,836.3 572.9,837.6 573.4,841C573,844 573,844 571.4,846.4C568.1,848.6 566,848.6 562,848C559.6,846.4 559.6,846.4 558,844C557.4,840.5 557.4,840.5 558,837C561.7,832.6 564.6,832.4 570,834Z" fill="#E41111"/>
	<path d="M597,828C599.4,829.6 599.4,829.6 601,832C601.5,835 601.5,835 601,838C599.1,840.7 597.6,841.8 594.6,842.9C591.2,843 589.7,841.9 587,840C586,839 586,839 585.7,835.1C585.8,831.3 585.8,831.3 587.6,829C590.9,827.6 593.4,827.5 597,828Z" fill="#E31313"/>
	<path d="M327.6,781C332.6,782.5 332.6,782.5 334,785C334.5,787.8 334.5,790.2 334,793C331.8,795.7 330.4,795.9 327,796.4C324,796 324,796 321.7,794.4C319.6,791.4 318.9,789.7 319,786C321.6,782.1 322.9,781 327.6,781Z" fill="#E31414"/>
	<path d="M724,765C726.4,766.6 726.4,766.6 728,769C728.6,772.5 728.6,772.5 728,776C725.9,778.5 725.9,778.5 723,780C719.2,780 717,779.8 714.1,777.3C712.6,774.2 712.4,772.4 713,769C716.4,765.3 719,764.2 724,765Z" fill="#E31111"/>
	<path d="M285.2,746.4C287,747 287,747 289.1,748.6C290.4,752.1 290,754.4 289,758C286.7,760.6 285.4,760.9 282,761.4C279,761 279,761 276.6,759.4C274.4,756.1 274.4,754 275,750C277.7,745.6 280.4,745.5 285.2,746.4Z" fill="#E31212"/>
	<path d="M232,681C234,682.6 234,682.6 235,685C234.9,688.8 234.8,691.1 232.3,693.9C229.3,695.3 227.3,695.5 224,695C221.6,693.4 221.6,693.4 220,691C219.4,687.5 219.4,687.5 220,684C223.7,679.6 226.6,679.4 232,681Z" fill="#E31111"/>
	<path d="M216,655C218.4,656.6 218.4,656.6 220,659C220.6,663 220.6,665.1 218.4,668.4C215.2,670.5 213.7,670.7 210,670C207.1,667.9 207.1,667.9 205,665C204.9,661.1 205.1,659 207.7,656.1C210.7,654.7 212.7,654.5 216,655Z" fill="#E31313"/>
	<path d="M849,488C851.4,489.6 851.4,489.6 853,492C853.6,494.9 853.6,494.9 853,498C850.9,500.9 850.9,500.9 848,503C844.2,503.1 842,502.8 839,500.4C837.5,496.9 838.1,494.6 839,491C841.3,487 844.7,487.5 849,488Z" fill="#E31111"/>
	<path d="M355,797C358,799 358,799 358.9,801.8C359,805.6 358.3,807.1 356,810C353.2,811.4 351.1,811.3 348,811C345.4,809.1 344.2,807.6 343,804.6C343,800.9 344.5,799.5 347,797C349.9,795.5 351.9,796.3 355,797Z" fill="#E31314"/>
	<path d="M307,765C310.1,767.1 310.9,768.3 311.6,771.9C310.8,776.1 309.5,777.6 306,780C302.2,780.1 300,779.8 297,777.4C295.5,773.9 296,771.6 297,768C299.9,764.7 302.7,764.4 307,765Z" fill="#E31212"/>
	<path d="M248,704C250.5,706.1 250.5,706.1 252,709C252.1,712.6 252.1,712.6 251,716C248.2,718.6 246.7,719 242.9,718.9C238.5,717.5 238.5,717.5 237,715C236.5,712.2 236.5,709.8 237,707C239.9,703.3 243.5,703.4 248,704Z" fill="#E31111"/>
	<path d="M844,574C846.7,576.2 846.9,577.6 847.5,580.9C847,584 847,584 844.9,586.9C842,589 842,589 838.4,589.1C835,588 835,588 833,585.8C831.8,582.4 831.9,580.5 833,577C835.3,572.9 839.8,573.2 844,574Z" fill="#E21110"/>
	<path d="M182,545C184.4,545.9 184.4,545.9 186,548C186.5,551.1 186.6,554 186,557C184.7,558.8 184.7,558.8 183,560C179.1,560.5 176.9,560.6 173.6,558.4C171.4,555.1 171.4,552.9 172,549C174.8,544.9 177.2,544.3 182,545Z" fill="#E31111"/>
	<path d="M184,459C186.4,460.6 186.4,460.6 188,463C188.6,466.8 188.3,468.5 186.4,471.9C184,474 184,474 181.1,474.6C176.9,473.8 175.4,472.5 173,469C173,465.5 173.3,463.1 175.1,460.1C178.2,458.3 180.6,458.6 184,459Z" fill="#E31112"/>
	<path d="M270,281C272.4,282.6 272.4,282.6 274,285C274.6,287.9 274.6,287.9 274,291C271.9,293.9 271.9,293.9 269,296C265.1,296.1 263,295.9 260.1,293.3C258.7,290.3 258.5,288.3 259,285C261.9,280.5 264.9,280.3 270,281Z" fill="#E21110"/>
	<path d="M765,726C767.9,728.1 767.9,728.1 770,731C770.1,734.9 769.9,737 767.3,739.9C764.3,741.3 762.3,741.5 759,741C756.6,739.4 756.6,739.4 755,737C754.4,733 754.4,730.9 756.6,727.6C759.8,725.5 761.3,725.3 765,726Z" fill="#E31212"/>
	<path d="M783,704C785.4,705.6 785.4,705.6 787,708C787.6,710.9 787.6,710.9 787,714C784.9,716.9 784.9,716.9 782,719C778.2,719.1 776,718.8 773,716.4C771.5,712.9 772.1,710.6 773,707C775.3,703 778.7,703.5 783,704Z" fill="#E40F10"/>
	<path d="M814,655C816.4,656.6 816.4,656.6 818,659C818.6,661.9 818.6,661.9 818,665C815.9,667.9 815.9,667.9 813,670C809.2,670.1 807,669.8 804,667.4C802.5,663.9 803.1,661.6 804,658C806.3,654 809.7,654.5 814,655Z" fill="#E21011"/>
	<path d="M833.1,600.9C836.5,602.2 838,602.9 840,606C840.2,609 839.7,611 839,614C835.3,616.5 833.4,616.5 829,616C826.6,614.4 826.6,614.4 825,612C824.4,609.1 824.4,609.1 825,606C827.5,602.5 828.7,601 833.1,600.9Z" fill="#E21414"/>
	<path d="M811,351C813.5,353.1 813.5,353.1 815,356C815,359.8 814.8,362 812.4,365C808.9,366.5 806.6,366 803,365C800.4,362.7 800.1,361.4 799.6,358C800,355 800,355 801.6,352.6C805,350.4 807,350.4 811,351Z" fill="#E21010"/>
	<path d="M761,281C764.1,283.1 764.9,284.3 765.6,287.9C764.8,292.1 763.5,293.6 760,296C756.2,296.1 754,295.8 751,293.4C749.5,289.9 750,287.6 751,284C753.9,280.7 756.7,280.4 761,281Z" fill="#E31110"/>
	<path d="M668,212C670.9,213.6 670.9,213.6 673,216C673.6,219.5 673.6,219.5 673,223C670.9,225.5 670.9,225.5 668,227C664.2,227 662,226.8 659,224.4C657.5,220.9 658.1,218.6 659,215C661.3,211.3 663.9,211.4 668,212Z" fill="#E31010"/>
	<path d="M847,460C849.6,462.3 849.9,463.6 850.4,467C850,470 850,470 848.4,472.4C845.2,474.5 843.7,474.7 840,474C837.1,471.9 837.1,471.9 835,469C834.9,465.2 835.2,463 837.6,460C841.1,458.5 843.4,459 847,460Z" fill="#E31111"/>
	<path d="M842,431C844.7,433.4 845.8,435 846.6,438.5C845.7,442.3 844.1,443.7 841,446C837.5,446 835.1,445.7 832.1,443.9C830.3,440.8 830.6,438.4 831,435C833.9,430.5 836.9,430.2 842,431Z" fill="#E31514"/>
	<path d="M206,376C209.3,378.5 210.8,379.9 211.6,384.1C211,387 211,387 209.4,389.4C206,391.6 204,391.6 200,391C197.5,388.9 197.5,388.9 196,386C196,382.2 196.1,380 198.8,377.1C201.5,375.7 202.9,375.4 206,376Z" fill="#E31111"/>
	<path d="M779,303C782.1,305.1 782.9,306.3 783.6,309.9C782.8,314.1 781.5,315.6 778,318C774.2,318.1 772,317.8 769,315.4C767.5,311.9 768,309.6 769,306C771.9,302.7 774.7,302.4 779,303Z" fill="#E30E0F"/>
	<path d="M826,629C828.4,630.6 828.4,630.6 830,633C830.6,636.5 830.6,636.5 830,640C827.9,642.5 827.9,642.5 825,644C821,644.1 819.5,643.5 816.6,640.8C815,638 815,638 815.1,634.9C817,628.8 819.7,628.2 826,629Z" fill="#E21213"/>
	<path d="M835,404C837.6,405.7 838,406.9 838.9,409.9C839,413 839,413 837.6,415.9C834.9,418.1 834.2,418.4 830.9,418.5C827,418 827,418 825,417C823.4,413.7 823.3,410.5 824,407C827.4,402.9 829.9,402.4 835,404Z" fill="#E31413"/>
	<path d="M821.1,375.9C824.8,377.3 826.1,378.5 828,382C827.9,385.2 827.5,387.1 825.9,389.9C822.8,391.7 820.5,391.4 817,391C814.6,389.4 814.6,389.4 813,387C812.4,383.5 812.4,383.5 813,380C815.6,376.9 817,376 821.1,375.9Z" fill="#E21111"/>
	<path d="M644,201C646,202.6 646,202.6 647,205C646.9,208.7 646.8,211.1 644.4,214C640.9,215.5 638.6,214.9 635,214C633.1,212.9 633.1,212.9 632,211C631.5,207.6 631.5,207.6 632,204C635.7,199.6 638.6,199.4 644,201Z" fill="#E21110"/>
	<path d="M381,809C383,810 383,810 384,812C384.7,817.1 384.7,817.1 384,820C381.4,822.6 381.4,822.6 378,824C374.5,823.5 372.7,822.6 370.1,820.3C368.6,817.1 369,815.3 370,812C372.4,807.8 376.8,808.4 381,809Z" fill="#E31011"/>
	<path d="M265,726C268.1,727.5 268.8,728.6 270.1,731.8C270,735 270,735 267.9,738.4C265,741 265,741 261.9,741.6C258.3,740.8 257.1,740.1 255,737C254.4,733 254.4,730.9 256.6,727.6C259.7,725.5 261.4,725.5 265,726Z" fill="#E31111"/>
	<path d="M193.1,601C196.5,602.2 197.5,602.8 199,606C199.5,609.6 199.5,611.3 197.4,614.4C194,616.6 192,616.6 188,616C185.5,613.9 185.5,613.9 184,611C183.9,607 184.5,605.5 187.2,602.6C190,601 190,601 193.1,601Z" fill="#E41212"/>
	<path d="M185.5,430.4C189,431 189,431 191.4,432.6C193.5,435.8 193.7,437.3 193,441C190.9,443.9 190.9,443.9 188,446C184,445.9 182.3,445.2 179,443C177.8,438.9 177.6,436.9 179.5,433.1C182,431 182,431 185.5,430.4Z" fill="#E21212"/>
	<path d="M195.1,402.9C198.8,404.3 200.1,405.5 202,409C202,412.5 201.7,414.2 199.3,416.9C196.3,418.4 194.4,418.5 191,418C188.6,416.4 188.6,416.4 187,414C186.4,410.5 186.4,410.5 187,407C189.6,403.9 191,403 195.1,402.9Z" fill="#E21112"/>
	<path d="M794.1,326.1C797.1,327 798.3,327.5 800,330C800.9,332.4 800.9,332.4 801,335C798.8,339.6 798.8,339.6 796,341C792.5,341.4 790.6,341.4 787.6,339.4C785.4,336 785.4,334 786,330C788.7,326.9 790,326 794.1,326.1Z" fill="#E21312"/>
	<path d="M652,810C653.9,811.6 653.9,811.6 655,814C654.9,817.8 654.8,820.1 652.3,822.9C649.3,824.3 647.3,824.5 644,824C641.6,822.4 641.6,822.4 640,820C639.5,817 639.5,817 640,814C643.8,809.3 646.2,808.5 652,810Z" fill="#E31110"/>
	<path d="M743.1,745.9C746.8,747.3 748.1,748.5 750,752C749.9,755.2 749.5,757.1 747.9,759.9C744.8,761.7 742.5,761.4 739,761C736.6,759.4 736.6,759.4 735,757C734.4,753.5 734.4,753.5 735,750C737.6,746.9 739,746 743.1,745.9Z" fill="#E41313"/>
	<path d="M189,574C191,575 191,575 192,577C192.4,580.1 192.6,582 192,585C189.9,587.6 189.9,587.6 187,589C183.8,588.9 181.9,588.5 179.1,586.9C177.3,583.8 177.5,580.6 178,577C180.1,572.8 184.9,573.4 189,574Z" fill="#E21111"/>
	<path d="M204,629C206.4,630.6 206.4,630.6 208,633C208.6,635.9 208.6,635.9 208,639C205.7,642 204.2,643.7 200.4,644.6C197.1,643.8 195.9,642.9 194,640C193.4,636.5 193.3,633.2 195.1,630C198.2,628.4 200.6,628.6 204,629Z" fill="#E21011"/>
	<path d="M232.1,325.9C235.8,327.3 237.1,328.6 239,332C239,335.3 238.2,336.7 236.3,339.3C234,341 234,341 231,341.5C228,341 228,341 225.6,339.4C223.4,336 223.4,334 224,330C226.6,326.9 228,326 232.1,325.9Z" fill="#E31010"/>
	<path d="M444,184C446.4,185.5 446.9,186.7 447.9,189.4C448,192.8 447,194.3 445,197C441.9,198.6 439.4,198.4 436,198C433.5,195.9 433.5,195.9 432,193C432,189.5 432.3,187.8 434.6,185.1C437.9,183.6 440.4,183.6 444,184Z" fill="#E31111"/>
	<path d="M538.6,836.1C543.5,837.4 543.5,837.4 545,840C545.4,843.3 545.3,845.3 543.9,848.3C541.2,850.7 539.5,851 536,851C533.1,849.5 533.1,849.5 531,847C530.4,843 530.4,840.9 532.6,837.5C535,836 535,836 538.6,836.1Z" fill="#E31111"/>
	<path d="M490,836C493,838 493,838 493.9,841.9C494.1,844.6 494,845.9 493,848.5C489.9,850.8 487.7,850.5 484,850C481.6,849 481.6,849 480,847C479.3,843.4 479.3,840.2 481.1,837C484.1,835.4 486.7,835.7 490,836Z" fill="#E31111"/>
	<path d="M517,838C519,841 519,841 518.9,844.5C518,848 518,848 516.3,850C513.1,851.4 511.3,851.1 508,850C506.1,848.4 506.1,848.4 505,846C505,842.4 505,842.4 506,839C509.9,835.4 512.4,835.7 517,838Z" fill="#E3100F"/>
	<path d="M513.9,537.8C515.2,537.8 516.5,537.8 517.8,537.8C521,538 521,538 523,540C520.5,541.3 518.6,541.2 515.8,541.3C514.7,541.4 513.7,541.4 512.6,541.4C511.6,541.5 510.5,541.5 509.4,541.6C508.3,541.6 507.2,541.6 506.1,541.7C503.4,541.8 500.7,541.9 498,542C498,541 498,540 498,539C503.3,538.1 508.5,537.9 513.9,537.8Z" fill="#E41E1F"/>
	<path d="M387,200C386.3,200.6 386.3,200.6 385.6,201.2C383.6,203.4 383.4,205.1 383,208C382,208.3 381,208.7 380,209C380.3,207.4 380.7,205.7 381,204C380.7,204 380.3,204 380,204C379.5,208.8 379.5,208.8 381.5,212.9C382,213.3 382.5,213.6 383,214C381.1,213.7 381.1,213.7 379,213C377,210 377,210 377.1,206.5C378,203 378,203 379.8,201.1C382.4,199.8 384.2,199.8 387,200Z" fill="#E20C0A"/>
	<path d="M818,376C821.8,376.3 823.6,376.6 826.4,379.2C828.4,382.6 828,384.3 827,388C826.7,387.3 826.3,386.7 826,386C825.3,385.7 824.7,385.3 824,385C823.7,384.2 823.4,383.4 823.1,382.6C822.2,379.9 822.2,379.9 819.9,378.7C818.9,378.3 818.9,378.3 818,378C818,377.3 818,376.7 818,376Z" fill="#E41E1E"/>
	<path d="M832,579C833,579 834,579 835,579C835.7,581.3 836.3,583.6 837,586C840,586.5 840,586.5 843,587C842.7,587.7 842.3,588.3 842,589C838.7,588.8 838.7,588.8 835,588C832.3,584.7 832,583.3 832,579Z" fill="#E21C1C"/>
	<path d="M759,726C763.1,725.5 764.6,725.7 767.9,728.2C770,731 770,731 770.3,733.8C770.2,734.9 770.2,734.9 770,736C769,736.5 769,736.5 768,737C767.3,734 766.7,731.1 766,728C764,728.3 762,728.7 760,729C759.7,728 759.3,727 759,726Z" fill="#E41E1D"/>
	<path d="M470,178C473.7,179.2 474.8,179.7 477,183C476.6,185.2 476.6,185.2 476,187C475.3,187 474.7,187 474,187C473.7,185.4 473.3,183.7 473,182C470,181.5 470,181.5 467,181C468,180.7 469,180.3 470,180C470,179.3 470,178.7 470,178Z" fill="#E52423"/>
	<path d="M349,796C352.7,796.5 354.8,796.9 358,799C358.7,802.1 358.7,802.1 359,805C358.3,804.7 357.7,804.3 357,804C357,803 357,802 357,801C355.9,800.7 354.7,800.5 353.6,800.2C352.4,799.8 351.2,799.4 350,799C349.7,798 349.3,797 349,796Z" fill="#E52828"/>
	<path d="M779,303C778.7,304 778.3,305 778,306C774.9,307.2 774.9,307.2 772,308C771.7,309.6 771.3,311.3 771,313C770.7,313 770.3,313 770,313C769.7,310.7 769.3,308.4 769,306C772.3,302.9 774.6,302.7 779,303Z" fill="#E41919"/>
	<path d="M195,634C195.3,634 195.7,634 196,634C196,636.3 196,638.6 196,641C197,640.7 198,640.3 199,640C201.7,640.9 201.7,640.9 204,642C203.7,642.7 203.3,643.3 203,644C199.8,644.4 198.4,644.2 195.6,642.4C194,640 194,640 194.3,636.8C194.5,635.8 194.7,634.9 195,634Z" fill="#E31A1A"/>
	<path d="M505,841C506,841.3 507,841.7 508,842C508.3,843 508.6,843.9 508.9,844.9C509.7,848.1 509.7,848.1 512.1,849.4C512.7,849.6 513.4,849.8 514,850C512.3,850.8 512.3,850.8 510,851C507.3,848.9 507.3,848.9 505,846C504.7,843.2 504.7,843.2 505,841Z" fill="#E42423"/>
	<path d="M264,726C266.4,727.1 266.4,727.1 269,729C269.8,732.2 269.8,732.2 270,735C269,735 268,735 267,735C265.8,732 264.7,729.1 264,726Z" fill="#E42121"/>
	<path d="M220,359C220.7,359.3 221.3,359.7 222,360C221,362 220,364 219,366C217.4,366 215.7,366 214,366C213.3,364.7 212.7,363.4 212,362C213.4,362.1 213.4,362.1 214.9,362.2C216.4,362.1 216.4,362.1 218,362C218.7,361 219.3,360 220,359Z" fill="#E31A1B"/>
	<path d="M235,330C236.3,330.7 237.6,331.3 239,332C238.5,335.7 237.9,337.6 235,340C234.3,338.7 233.7,337.4 233,336C234,336 235,336 236,336C235.7,334 235.3,332 235,330Z" fill="#E41C1B"/>
	<path d="M708,253C708.8,253.5 708.8,253.5 709.6,254C712.6,255.3 714.8,255.3 718,255C719,254.3 720,253.7 721,253C720.4,254.9 720.4,254.9 719,257C715.2,258 713.1,258.6 709.6,256.7C708,255 708,255 708,253Z" fill="#E52120"/>
	<path d="M356,802C356.7,802.7 357.3,803.3 358,804C357.8,806.5 357.8,806.5 357,809C353.6,811.3 352,811.2 348,811C347.7,810.3 347.3,809.7 347,809C349.6,809 352.3,809 355,809C355.3,806.7 355.7,804.4 356,802Z" fill="#E20B0A"/>
	<path d="M540,651C539.7,651.7 539.3,652.3 539,653C537.8,653 537.8,653 536.6,652.9C534.1,652.7 534.1,652.7 533,654C531.3,654 529.7,654 528,654C528.3,653 528.7,652 529,651C536.4,649.7 536.4,649.7 540,651Z" fill="#E41F20"/>
	<path d="M418,200C418.7,200 419.3,200 420,200C419,202.5 418.3,203.8 416.1,205.3C413.6,206.1 412.4,205.9 410,205C410,204 410,203 410,202C413,202.5 413,202.5 416,203C416.7,202 417.3,201 418,200Z" fill="#E31B1A"/>
	<path d="M373,817C373.6,817.5 374.2,817.9 374.8,818.4C377,820.2 377,820.2 380,821C379,822.5 379,822.5 378,824C376.4,823.7 374.7,823.3 373,823C371.9,819.3 371.9,819.3 373,817Z" fill="#E31A1B"/>
	<path d="M206,376C206,377 206,378 206,379C204.6,379.4 204.6,379.4 203.1,379.9C199.9,380.8 199.9,380.8 198,383C198.4,380.1 198.4,380.1 199,377C201.5,375.8 203.3,375.9 206,376Z" fill="#E32120"/>
	<path d="M360,477C361,477 362,477 363,477C362.7,480 362.3,482.9 362,486C361,485.7 360,485.3 359,485C359.3,482.4 359.7,479.7 360,477Z" fill="#E52122"/>
	<path d="M249,709C250.4,711.4 251.1,712.5 250.6,715.3C250.4,715.8 250.2,716.4 250,717C247.4,717 244.7,717 242,717C242.6,716.7 243.3,716.4 243.9,716.1C246.2,715.2 246.2,715.2 247,713C247.7,713 248.3,713 249,713C249,711.7 249,710.4 249,709Z" fill="#E31C1D"/>
	<path d="M667,798C667.7,798.3 668.3,798.7 669,799C668.7,801.6 668.3,804.3 668,807C667,806.7 666,806.3 665,806C665.9,799.1 665.9,799.1 667,798Z" fill="#E62826"/>
	<path d="M500.1,663.4C501,663.5 501.9,663.6 502.9,663.7C503.6,663.8 504.3,663.9 505,664C505,664.3 505,664.7 505,665C503.6,665.2 502.1,665.4 500.7,665.6C499.9,665.7 499.1,665.9 498.3,666C496,666 496,666 493,664C495.6,662.7 497.2,663.1 500.1,663.4Z" fill="#E61919"/>
	<path d="M535,371C538,371.3 540.9,371.7 544,372C544,373 544,374 544,375C540.6,374.7 540.6,374.7 537,374C536.3,373 535.7,372 535,371Z" fill="#E41A1C"/>
	<path d="M561,185C561.7,186.3 562.3,187.6 563,189C562,190.3 561,191.6 560,193C558.3,192.7 556.7,192.3 555,192C555.7,191.3 556.3,190.7 557,190C558,190 559,190 560,190C560.3,188.4 560.7,186.7 561,185Z" fill="#E51E1D"/>
	<path d="M522,187C526.5,188 526.5,188 531,189C530.3,189.7 529.7,190.3 529,191C525.4,190.6 525.4,190.6 522,190C522,189 522,188 522,187Z" fill="#E41A1B"/>
	<path d="M644,807C646.3,807.3 648.6,807.7 651,808C651,808.7 651,809.3 651,810C647.7,810.3 644.4,810.7 641,811C641.3,810.3 641.7,809.7 642,809C642.7,809 643.3,809 644,809C644,808.3 644,807.7 644,807Z" fill="#F1EEEE"/>
	<path d="M775,716C777.3,716 779.6,716 782,716C782,717 782,718 782,719C779.7,718.7 777.4,718.3 775,718C775,717.3 775,716.7 775,716Z" fill="#E42021"/>
	<path d="M841,528C843.6,528.3 846.3,528.7 849,529C849,530 849,531 849,532C846.1,531.7 846.1,531.7 843,531C842.3,530 841.7,529 841,528Z" fill="#E21B1A"/>
	<path d="M841,500C843.3,500 845.6,500 848,500C848,501 848,502 848,503C845.7,502.7 843.4,502.3 841,502C841,501.3 841,500.7 841,500Z" fill="#E4201F"/>
	<path d="M417,190C418.6,191 420.3,192 422,193C421.7,195.6 421.3,198.3 421,201C420.7,201 420.3,201 420,201C419.5,199 419.1,197 418.6,194.9C418.1,192.8 418.1,192.8 416,191C416.3,190.7 416.7,190.3 417,190Z" fill="#EEE3E5"/>
	<path d="M639,813C639.7,813.3 640.3,813.7 641,814C641,816.6 641,819.3 641,822C638.9,820.3 638.9,820.3 637,818C637.2,815.8 637.4,814.6 639,813Z" fill="#F3F1F1"/>
	<path d="M430,396C430.7,396.3 431.3,396.7 432,397C431,397 430,397 429,397C429.3,396.7 429.7,396.3 430,396ZM427,398C427.7,398.3 428.3,398.7 429,399C427.4,400.6 425.7,402.3 424,404C423.3,403.3 422.7,402.7 422,402C423.6,400.7 425.3,399.4 427,398Z" fill="#F2EBEC"/>
	<path d="M727,264C728,264.3 729,264.7 730,265C730,267.3 730,269.6 730,272C729,271.7 728,271.3 727,271C727,268.7 727,266.4 727,264Z" fill="#EEF1F0"/>
	<path d="M388.7,201.4C389.5,201.6 390.2,201.8 391,202C391,203 391,204 391,205C388.4,204.3 385.7,203.7 383,203C386,201 386,201 388.7,201.4Z" fill="#E41918"/>
	<path d="M693,782C696.1,782.4 696.1,782.4 699,783C698,783.7 697,784.3 696,785C694.7,786 693.3,787 692,788C691.4,786.1 691.4,786.1 691,784C691.7,783.3 692.3,782.7 693,782Z" fill="#E41B19"/>
	<path d="M803,680C804.6,681.6 804.6,681.6 806,684C805.2,687.3 805.2,687.3 804,690C803.7,690 803.3,690 803,690C802.3,687 801.7,684.1 801,681C801.7,680.7 802.3,680.3 803,680Z" fill="#EFDFE0"/>
	<path d="M734,273C736,273 738,273 740,273C740,274 740,275 740,276C738.3,276 736.7,276 735,276C734.7,275 734.3,274 734,273Z" fill="#E31D1D"/>
	<path d="M735,258C738,258.5 738,258.5 741,259C741,260 741,261 741,262C738.7,261.7 736.4,261.3 734,261C734.3,260 734.7,259 735,258Z" fill="#F0E4E5"/>
	<path d="M468,646C472.5,647 472.5,647 477,648C476.3,648.7 475.7,649.3 475,650C471.4,649.6 471.4,649.6 468,649C468,648 468,647 468,646Z" fill="#E41D1C"/>
	<path d="M835,550C835.7,550 836.3,550 837,550C837.3,552.3 837.7,554.6 838,557C836,557 836,557 834.4,555.6C833,554 833,554 833,552C833.7,552 834.3,552 835,552C835,551.3 835,550.7 835,550Z" fill="#F1EFF0"/>
	<path d="M667,536C668.1,537.8 668.1,537.8 669,540C668.1,542.3 668.1,542.3 667,544C665,541 665,541 665.3,538.9C666,537 666,537 667,536Z" fill="#F0EBEB"/>
	<path d="M271,293C270,294.5 270,294.5 269,296C266.4,296.2 266.4,296.2 264,296C264,295 264,294 264,293C267,292.1 267.9,292 271,293Z" fill="#E31C1C"/>
</svg>
