<?xml version="1.0" encoding="utf-8"?>
<!-- Generator: Adobe Illustrator 28.3.0, SVG Export Plug-In . SVG Version: 6.00 Build 0)  -->
<svg version="1.1" id="Layer_2_00000163762595248701416220000011505891525830002614_"
     xmlns="http://www.w3.org/2000/svg" xmlns:xlink="http://www.w3.org/1999/xlink" x="0px" y="0px" viewBox="0 0 1080 1920"
     style="enable-background:new 0 0 1080 1920;" xml:space="preserve">
<style type="text/css">
    .st0{opacity:0.5;enable-background:new    ;}
</style>
<path class="st0" d="M0,0v1920h1080V0H0z M540,1462.4c-277.6,0-502.4-224.8-502.4-502.4S262.4,457.6,540,457.6
    s502.4,224.8,502.4,502.4S817.6,1462.4,540,1462.4z"/>
<path id="Layer_1-1" d="M540,1462.4c-277.6,0-502.4-224.8-502.4-502.4S262.4,457.6,540,457.6s502.4,224.8,502.4,502.4
    S817.6,1462.4,540,1462.4z M540,467.8c-272.9,0-492.2,219.3-492.2,492.2s219.3,492.2,492.2,492.2s492.2-219.3,492.2-492.2
    S812.9,467.8,540,467.8z"/>
</svg>