<?xml version="1.0" encoding="utf-8"?>
<!-- Generator: Adobe Illustrator 28.3.0, SVG Export Plug-In . SVG Version: 6.00 Build 0)  -->
<svg version="1.1" id="Layer_2_00000163762595248701416220000011505891525830002614_"
     xmlns="http://www.w3.org/2000/svg" xmlns:xlink="http://www.w3.org/1999/xlink" x="0px" y="0px" viewBox="0 0 1080 1920"
     style="enable-background:new 0 0 1080 1920;" xml:space="preserve">
<style type="text/css">
    .st0{opacity:0.5;enable-background:new    ;}
</style>
<path class="st0" d="M0,0v1920h1080V0H0z M540,1562.4c-247.2,0-466.5-245.1-466.5-602.4S287.4,357.9,540,357.6
    c243.4-0.3,466.5,245.1,466.5,602.4S785.9,1562.4,540,1562.4z"/>
<path id="Layer_1-1" d="M540,1562.4c-64,0-126-16-184.4-47.6c-56.2-30.4-106.7-74-150-129.4c-43.2-55.3-77.1-119.7-100.8-191.3
    C80.4,1119.9,68,1041.1,68,960s12.4-159.9,36.9-234c23.7-71.7,57.6-136,100.8-191.3c43.3-55.4,93.7-99,150-129.4
    C414,373.6,476,357.6,540,357.6s126,16,184.4,47.6c56.2,30.4,106.7,74,150,129.4C917.5,590,951.4,654.4,975.1,726
    c24.5,74.1,36.9,152.8,36.9,234s-12.4,159.9-36.9,234c-23.7,71.7-57.6,136-100.8,191.3c-43.3,55.4-93.8,99-150,129.4
    C666,1546.4,604,1562.4,540,1562.4L540,1562.4z M540,367.8c-122.8,0-238.4,61.4-325.4,172.8C127.2,652.6,79,801.5,79,960
    s48.2,307.4,135.6,419.4c87.1,111.5,202.6,172.8,325.4,172.8s238.4-61.4,325.4-172.8c87.4-112,135.6-260.9,135.6-419.4
    s-48.2-307.4-135.6-419.4C778.3,429.2,662.8,367.8,540,367.8z"/>
</svg>
