<?xml version="1.0" encoding="UTF-8"?>
<svg id="Layer_2" data-name="Layer 2" xmlns="http://www.w3.org/2000/svg" viewBox="0 0 1080 1920">
  <defs>
    <style>
    
      .cls-2 {
        fill: #80000000;
        opacity: .50;
      }
    </style>
  </defs>
  <g  data-name="Layer 1">
    <g>
      <path class="cls-2" d="M0,0v1920h1080V0H0ZM540,1607c-257.64,0-466.5-289.67-466.5-647s208.86-647,466.5-647,466.5,289.67,466.5,647-208.86,647-466.5,647Z"/>
      <path id="Layer_1-1" d="M540.25,1612.5c-63.97,0-126-17.36-184.37-51.6-56.21-32.98-106.67-80.14-149.96-140.18-43.2-59.91-77.1-129.65-100.77-207.27-24.48-80.29-36.9-165.56-36.9-253.45s12.42-173.16,36.9-253.45c23.67-77.62,57.58-147.36,100.77-207.27,43.29-60.04,93.75-107.21,149.96-140.18,58.37-34.24,120.4-51.6,184.37-51.6s126,17.36,184.37,51.6c56.21,32.98,106.67,80.14,149.96,140.18,43.2,59.91,77.1,129.65,100.77,207.27,24.48,80.29,36.9,165.56,36.9,253.45s-12.42,173.16-36.9,253.45c-23.67,77.62-57.58,147.36-100.77,207.27-43.29,60.04-93.75,107.21-149.96,140.18-58.37,34.24-120.4,51.6-184.37,51.6ZM540.25,318.5c-122.79,0-238.36,66.49-325.4,187.22-87.44,121.27-135.6,282.61-135.6,454.28s48.16,333.01,135.6,454.28c87.05,120.73,202.61,187.22,325.4,187.22s238.36-66.49,325.4-187.22c87.44-121.27,135.6-282.61,135.6-454.28s-48.16-333.01-135.6-454.28c-87.05-120.73-202.61-187.22-325.4-187.22Z"/>
    </g>
  </g>
</svg>
