<svg xmlns="http://www.w3.org/2000/svg" width="70.36" height="70.36" viewBox="0 0 70.36 70.36">
  <g id="check-circle-svgrepo-com_7_" data-name="check-circle-svgrepo-com (7)" transform="translate(-1.25 -1.25)">
    <path id="Path_7271" data-name="Path 7271" d="M34.848,12.94a2.454,2.454,0,1,0-3.471-3.471L16.75,24.1l-4.81-4.809a2.454,2.454,0,1,0-3.471,3.471L15.014,29.3a2.454,2.454,0,0,0,3.471,0Z" transform="translate(14.772 17.044)" fill="#e1be4d"/>
    <path id="Path_7272" data-name="Path 7272" d="M36.43,1.25A35.18,35.18,0,1,0,71.61,36.43,35.18,35.18,0,0,0,36.43,1.25ZM6.159,36.43A30.271,30.271,0,1,1,36.43,66.7,30.271,30.271,0,0,1,6.159,36.43Z" fill="#e1be4d" fill-rule="evenodd"/>
  </g>
</svg>
