<svg xmlns="http://www.w3.org/2000/svg" width="70.18" height="70.18" viewBox="0 0 70.18 70.18">
  <g id="attention-svgrepo-com_1_" data-name="attention-svgrepo-com (1)" transform="translate(0)">
    <path id="Path_7273" data-name="Path 7273" d="M59.9,10.277A35.089,35.089,0,1,0,70.18,35.09,35,35,0,0,0,59.9,10.277Zm-5.146,5.147A27.812,27.812,0,1,1,35.09,7.278,27.707,27.707,0,0,1,54.756,15.424Z" transform="translate(0 0)" fill="#e1be4d"/>
    <path id="Path_7274" data-name="Path 7274" d="M230.184,146.2a1.565,1.565,0,0,0,.425.821,1.118,1.118,0,0,0,.852.393,1.179,1.179,0,0,0,1.276-1.213l2.556-19.63a12.867,12.867,0,0,0,.065-1.473,4.087,4.087,0,0,0-1.014-2.686,3.553,3.553,0,0,0-2.882-1.211,3.487,3.487,0,0,0-2.915,1.243,4.128,4.128,0,0,0-.983,2.654,13.733,13.733,0,0,0,.065,1.473Z" transform="translate(-196.371 -104.587)" fill="#e1be4d"/>
    <path id="Path_7275" data-name="Path 7275" d="M231.051,341.1a3.961,3.961,0,1,0-3.963-3.962,3.932,3.932,0,0,0,1.145,2.783A3.777,3.777,0,0,0,231.051,341.1Z" transform="translate(-195.961 -287.534)" fill="#e1be4d"/>
  </g>
</svg>
