<svg xmlns="http://www.w3.org/2000/svg" xmlns:xlink="http://www.w3.org/1999/xlink" width="197.446" height="141.501" viewBox="0 0 197.446 141.501">
  <g id="Group_14760" data-name="Group 14760" transform="translate(-74 -293.834)">
    <g id="Group_14689" data-name="Group 14689" transform="translate(90.732 339.265)">
      <g id="Group_14688" data-name="Group 14688" >
        <path id="Path_7318" data-name="Path 7318" d="M180.615,32.354a26.534,26.534,0,0,1,0,4.6c-1.228,9.679-13,16.849-21.032,20.454-3.543,1.59-11.079,5.692-13.35.76-2.668-5.8,5.925-7.107,9.583-8.779,7.065-3.228,21.115-10.647,13.859-20.028C161.439,18.711,136.117,13.1,123.252,11.2c-26.016-3.847-57.673-3.257-83.137,3.5C29.387,17.554-3.372,28.255,14.164,43.141,31.415,57.785,78.79,61.828,100.755,60.3c.894-.062,1.732-.382,2.631-.371-4.459-5.278-10.334-9.569-14.291-15.186-1.056-4.654,3.589-7.424,7.413-4.605,5.71,6.777,14.36,12.98,19.754,19.791,2.642,3.337,2.632,5.874,0,9.2-3.762,4.753-14.3,15.138-19.038,19.094-4.41,3.678-9.377,1.294-7.907-4.393L103.739,68.77c-.791.007-1.457.33-2.276.366-24.7,1.086-57.417-1.488-80.126-11.621-28.441-12.691-28.456-33.03,0-45.727C56.6-3.948,124.357-3.95,159.582,11.9c8.017,3.607,19.806,10.793,21.032,20.454" transform="translate(0 0)" fill="#fff"/>
      </g>
    </g>
    <g id="Group_14687" data-name="Group 14687" transform="translate(126.268 293.834)">
      <g id="Group_14608" data-name="Group 14608" >
        <path id="Path_7220" data-name="Path 7220" d="M15.064.082A32.734,32.734,0,0,1,18.577.014L123.339,7.191c8.375,1.117,12.795,9.6,13.718,17.285v92.537c-.77,7.277-5.27,16.116-13.2,17.288-33.053,2.016-66.071,4.771-99.124,6.667-6.748.387-11.664,1.882-17.413-2.83-4.259-3.49-6.633-8.8-7.317-14.207L.013,17.314C1.07,9.338,6.5,1.007,15.064.082M55.443,67.264C65.264,58.383,63.37,37,49.959,33.2,37.432,29.645,30.467,44.4,32.068,54.943c1.7,11.228,13.054,21.655,23.376,12.321M86.164,47.59A4.762,4.762,0,0,0,87.849,48.6c4.556,1.077,10.339-.268,14.992.632,4.831-.667,10.989.879,15.612.222,4.695-.666,4.452-9.833,0-10.461-3.007-.424-6.2-.139-9.209-.268-4.953-.213-9.88-.382-14.856-.513-2.172-.057-5.715-.9-7.63.289-2.773,1.723-2.714,6.845-.594,9.093m2.149,19.628C83.56,68.454,83.251,76.2,87.8,77.86c9.164-.263,18.752.557,27.87.071.9-.048,2.468-.152,3.306-.28,3.573-.55,4.616-9.674-1.084-10.421ZM36.074,78.51C23.485,79.639,18.335,93.02,19.211,104.2a6.033,6.033,0,0,0,3.328,5.384c11.661.1,23.353-.695,34.965-1.175,3.516-.146,7.837.141,11.252-.274,5.23-.636,4.783-7.133,4.508-11.117-.566-8.209-5.682-17.773-14.73-18.579a161.2,161.2,0,0,0-22.46.072m80.94,17.171c-6.664.243-13.383.507-20.044.7-2.56.075-7.21-.446-9.42.314-4.2,1.444-4.083,10.507,1.482,10.7.742.026,1.341-.271,2.025-.276,6.773-.048,13.492-.462,20.236-.769,2.386-.108,5.3.327,7.581-.36,3.5-1.054,3.989-7.191,1.275-9.5-1.17-1-1.722-.864-3.135-.812" transform="translate(0 0)" fill="#e1be4d"/>
      </g>
    </g>
    <g id="Mask_Group_250" data-name="Mask Group 250" transform="translate(74 373.651)" >
      <g id="Group_14690" data-name="Group 14690" transform="translate(16.732 -34.293)">
        <g id="Group_14688-2" data-name="Group 14688" >
          <path id="Path_7318-2" data-name="Path 7318" d="M180.615,32.354a26.534,26.534,0,0,1,0,4.6c-1.228,9.679-13,16.849-21.032,20.454-3.543,1.59-11.079,5.692-13.35.76-2.668-5.8,5.925-7.107,9.583-8.779,7.065-3.228,21.115-10.647,13.859-20.028C161.439,18.711,136.117,13.1,123.252,11.2c-26.016-3.847-57.673-3.257-83.137,3.5C29.387,17.554-3.372,28.255,14.164,43.141,31.415,57.785,78.79,61.828,100.755,60.3c.894-.062,1.732-.382,2.631-.371-4.459-5.278-10.334-9.569-14.291-15.186-1.056-4.654,3.589-7.424,7.413-4.605,5.71,6.777,14.36,12.98,19.754,19.791,2.642,3.337,2.632,5.874,0,9.2-3.762,4.753-14.3,15.138-19.038,19.094-4.41,3.678-9.377,1.294-7.907-4.393L103.739,68.77c-.791.007-1.457.33-2.276.366-24.7,1.086-57.417-1.488-80.126-11.621-28.441-12.691-28.456-33.03,0-45.727C56.6-3.948,124.357-3.95,159.582,11.9c8.017,3.607,19.806,10.793,21.032,20.454" transform="translate(0 0)" fill="#fff"/>
        </g>
      </g>
    </g>
    <g id="Mask_Group_251" data-name="Mask Group 251" transform="translate(224.782 373.651)" >
      <g id="Group_14691" data-name="Group 14691" transform="translate(-134.504 -34.386)">
        <g id="Group_14688-3" data-name="Group 14688" >
          <path id="Path_7318-3" data-name="Path 7318" d="M180.615,32.354a26.534,26.534,0,0,1,0,4.6c-1.228,9.679-13,16.849-21.032,20.454-3.543,1.59-11.079,5.692-13.35.76-2.668-5.8,5.925-7.107,9.583-8.779,7.065-3.228,21.115-10.647,13.859-20.028C161.439,18.711,136.117,13.1,123.252,11.2c-26.016-3.847-57.673-3.257-83.137,3.5C29.387,17.554-3.372,28.255,14.164,43.141,31.415,57.785,78.79,61.828,100.755,60.3c.894-.062,1.732-.382,2.631-.371-4.459-5.278-10.334-9.569-14.291-15.186-1.056-4.654,3.589-7.424,7.413-4.605,5.71,6.777,14.36,12.98,19.754,19.791,2.642,3.337,2.632,5.874,0,9.2-3.762,4.753-14.3,15.138-19.038,19.094-4.41,3.678-9.377,1.294-7.907-4.393L103.739,68.77c-.791.007-1.457.33-2.276.366-24.7,1.086-57.417-1.488-80.126-11.621-28.441-12.691-28.456-33.03,0-45.727C56.6-3.948,124.357-3.95,159.582,11.9c8.017,3.607,19.806,10.793,21.032,20.454" transform="translate(0 0)" fill="#fff"/>
        </g>
      </g>
    </g>
  </g>
</svg>
