<svg id="Group_14767" data-name="Group 14767" xmlns="http://www.w3.org/2000/svg" xmlns:xlink="http://www.w3.org/1999/xlink" width="120.617" height="120.664" viewBox="0 0 120.617 120.664">
  <defs>
    <clipPath id="clip-path">
      <rect id="Rectangle_3088" data-name="Rectangle 3088" width="120.617" height="120.664" fill="#e1be4d"/>
    </clipPath>
  </defs>
  <g id="Group_14653" data-name="Group 14653" clip-path="url(#clip-path)">
    <path id="Path_7265" data-name="Path 7265" d="M120.55,118.233c-.193-.987-1.407-1.248-2.2-1.588-9.767-4.038-20.418-6.84-30.23-10.856a5.9,5.9,0,0,1-3.619-4.708c-.533-4.73.363-10.481.057-15.325,5.037-5.3,6.511-12.194,7.816-19.159,5.15-3.04,7.861-7.112,8.258-13.158.238-3.482.454-8.213-2.643-10.459-1.055-.771-2.1-.749-3.119-1.407a43.536,43.536,0,0,0-.556-15.847C85.885-8.077,35.985-8.746,26.6,24.774c-1.611,5.717-1.486,11.332-.828,17.2-6.114.386-6.114,6.727-5.8,11.468.408,6.239,3.153,10.084,8.383,13.295,1.157,7.078,2.825,13.805,7.691,19.273-.295,4.764.579,10.425.057,15.075a5.913,5.913,0,0,1-3.607,4.708c-9.823,4.016-20.486,6.817-30.23,10.856-.805.34-2.019.6-2.2,1.588-.374,1.906.76,2.745,2.575,2.325,9.914-4.254,21.666-6.783,31.365-11.241,3.335-1.531,6.125-5.2,6.125-9v-9.7a83.367,83.367,0,0,0,7.986,7.26c1.951,1.418,3.494,2.643,6,2.836a97.681,97.681,0,0,0,12.625-.011C71.6,100.3,76.923,93.64,80.474,90.623v9.7c0,3.8,2.79,7.464,6.125,9,9.687,4.447,21.473,6.976,31.365,11.241,1.815.42,2.949-.42,2.586-2.325M94.971,45.748a2.163,2.163,0,0,1,1.633,1.4,54.578,54.578,0,0,1-.023,8.281,9.66,9.66,0,0,1-3.505,5.955ZM24.505,57.228c-.59-1.736-.839-8.292-.488-10.084a1.9,1.9,0,0,1,2.008-1.4l1.509,15.631a8.614,8.614,0,0,1-3.029-4.152m42.72,39.43c-4.072.658-9.982-.374-14.236-.1A61.854,61.854,0,0,1,37.165,81.117c-5.422-7.793-6.6-25.137-7.362-34.734C28.986,36,27.92,27.27,33.739,18.047c4.753-7.566,13.2-13.261,22.233-14.066C76,2.2,92.01,15.177,91.579,35.8c-.238,10.765-1.849,30.741-5.558,40.587-1.713,4.526-14.247,19.533-18.8,20.271" transform="translate(0 0)" fill="#e1be4d"/>
    <path id="Path_7266" data-name="Path 7266" d="M23.2,40.335l1.511,15.63a8.669,8.669,0,0,1-3.032-4.151c-.586-1.736-.831-8.289-.489-10.087a1.916,1.916,0,0,1,2.01-1.393" transform="translate(2.825 5.415)" fill="#e1be4d"/>
    <path id="Path_7267" data-name="Path 7267" d="M82.055,55.96l1.888-15.632a2.147,2.147,0,0,1,1.632,1.4,52.923,52.923,0,0,1-.02,8.285,9.612,9.612,0,0,1-3.5,5.951" transform="translate(11.024 5.418)" fill="#e1be4d"/>
  </g>
</svg>
