<svg id="Group_14673" data-name="Group 14673" xmlns="http://www.w3.org/2000/svg" xmlns:xlink="http://www.w3.org/1999/xlink" width="24.428" height="24.452" viewBox="0 0 24.428 24.452">
  <defs>
    <clipPath id="clip-path">
      <rect id="Rectangle_3121" data-name="Rectangle 3121" width="24.428" height="24.452" fill="#fff"/>
    </clipPath>
  </defs>
  <g id="Group_14672" data-name="Group 14672" clip-path="url(#clip-path)">
    <path id="Path_7307" data-name="Path 7307" d="M87.166,162.267V166.7c0,1.486-1.669,2.777-3.066,2.868-2.77.181-5.734-.142-8.525,0a3.367,3.367,0,0,1-3.016-2.867v-4.438Z" transform="translate(-67.636 -151.258)" fill="#fff"/>
    <path id="Path_7308" data-name="Path 7308" d="M87.166,92.936H72.559a3.253,3.253,0,0,1,3.066-3.248c2.77-.181,5.734.142,8.525,0a3.264,3.264,0,0,1,3.016,3.248" transform="translate(-67.636 -83.55)" fill="#fff"/>
    <path id="Path_7309" data-name="Path 7309" d="M1.948,246.248a6.935,6.935,0,0,1-1.882-5.574.822.822,0,0,1,1.519-.225,5.768,5.768,0,0,1,.1,1.627,4.941,4.941,0,0,0,4.483,4.444c.408.031.869-.042,1.267,0a.815.815,0,0,1-.049,1.625,6.891,6.891,0,0,1-5.436-1.9" transform="translate(0 -223.744)" fill="#fff"/>
    <path id="Path_7310" data-name="Path 7310" d="M1.948,2.28A6.891,6.891,0,0,1,7.384.383a.815.815,0,0,1,.049,1.625c-.4.042-.86-.03-1.267,0A4.941,4.941,0,0,0,1.683,6.453a5.768,5.768,0,0,1-.1,1.627A.822.822,0,0,1,.066,7.854,6.935,6.935,0,0,1,1.948,2.28" transform="translate(0 -0.331)" fill="#fff"/>
    <path id="Path_7311" data-name="Path 7311" d="M246.248,1.948a6.891,6.891,0,0,1,1.9,5.436.815.815,0,0,1-1.625.049c-.042-.4.03-.86,0-1.267a4.941,4.941,0,0,0-4.444-4.483,5.768,5.768,0,0,1-1.627-.1.822.822,0,0,1,.225-1.519,6.935,6.935,0,0,1,5.574,1.882" transform="translate(-223.744 0)" fill="#fff"/>
    <path id="Path_7312" data-name="Path 7312" d="M246.248,246.227a6.935,6.935,0,0,1-5.574,1.882.822.822,0,0,1-.225-1.519,5.768,5.768,0,0,1,1.627-.1,4.943,4.943,0,0,0,4.444-4.483c.03-.408-.042-.869,0-1.267a.815.815,0,0,1,1.625.049,6.89,6.89,0,0,1-1.9,5.436" transform="translate(-223.744 -223.723)" fill="#fff"/>
  </g>
</svg>
