<svg xmlns="http://www.w3.org/2000/svg" xmlns:xlink="http://www.w3.org/1999/xlink" width="259.677" height="288.176" viewBox="0 0 259.677 288.176">
  <defs>
    <clipPath id="clip-path">
      <rect id="Rectangle_2307" data-name="Rectangle 2307" width="27.031" height="25.541" fill="none" stroke="#e8bc2d" stroke-width="1"/>
    </clipPath>
  </defs>
  <g id="Group_14763" data-name="Group 14763" transform="translate(-64.41 -284.002)">
    <g id="Group_69" data-name="Group 69" transform="translate(-87.245 133.23)">
      <g id="Group_68" data-name="Group 68" transform="translate(143.25 151.271)">
        <g id="Group_67" data-name="Group 67" transform="translate(0 0)">
          <rect id="Rectangle_2305" data-name="Rectangle 2305" width="189.121" height="221.859" rx="12" transform="translate(78.462)" fill="none" stroke="#e8bc2d" stroke-miterlimit="10" stroke-width="1" stroke-dasharray="4.975 4.975"/>
          <path id="Path_183" data-name="Path 183" d="M197.523,104.924,73.9,147.826a11.823,11.823,0,0,1-15-7.274L39.063,83.414a11.824,11.824,0,0,1,7.272-15l123.629-42.9a11.825,11.825,0,0,1,15,7.272L204.8,89.92A11.826,11.826,0,0,1,197.523,104.924Z" transform="translate(30.288 45.414)" fill="none" stroke="#e8bc2d" stroke-miterlimit="10" stroke-width="1"/>
          <path id="Path_7294" data-name="Path 7294" d="M0,0H29.54V32.985H0Z" transform="translate(175.327 100.096) rotate(-19.138)" fill="rgba(255,223,119,0)" stroke="#e8bc2d" stroke-width="1"/>
          <g id="Group_64" data-name="Group 64" transform="translate(182.49 95.826)" style="isolation: isolate">
            <g id="Group_63" data-name="Group 63" transform="translate(0 0)">
              <g id="Group_62" data-name="Group 62" clip-path="url(#clip-path)">
                <path id="Path_184" data-name="Path 184" d="M119.528,43.411a9.039,9.039,0,1,1-11.5-5.576,9.039,9.039,0,0,1,11.5,5.576" transform="translate(-98.964 -32.858)" fill="#fff" stroke="#e8bc2d" stroke-width="1"/>
              </g>
            </g>
          </g>
          <path id="Path_185" data-name="Path 185" d="M102.41,59.155c0-.009-.161-2.054-.159-2.036-.945-9.222,17.162-14.871,25.478-6.749Z" transform="translate(85.093 71.903)" fill="#fff" stroke="#e8bc2d" stroke-width="1"/>
          <rect id="Rectangle_2310" data-name="Rectangle 2310" width="246.201" height="256.835" transform="translate(8.406 30.84)" fill="none"/>
          <g id="Group_14762" data-name="Group 14762" transform="matrix(0.974, 0.225, -0.225, 0.974, 55.365, 11.197)">
            <path id="Path_7293" data-name="Path 7293" d="M13.369.019,98.432.206a13.576,13.576,0,0,1,13.412,13.65l.484,207.35A13.429,13.429,0,0,1,98.98,234.8l-85.065-.187A13.575,13.575,0,0,1,.5,220.962L.02,13.611A13.428,13.428,0,0,1,13.369.019Z" transform="matrix(0.973, -0.231, 0.231, 0.973, 0.039, 27.91)" fill="rgba(232,188,45,0)" stroke="#e8bc2d" stroke-width="1"/>
            <path id="Path_187" data-name="Path 187" d="M35.381,9.131,6.137,15.45A5.056,5.056,0,0,1,.155,12,4.551,4.551,0,0,1,3.788,6.482L33.032.163a5.054,5.054,0,0,1,5.982,3.446A4.551,4.551,0,0,1,35.381,9.131Z" transform="translate(33.063 19.837)" fill="#e8bc2d"/>
            <text id="NFC" transform="translate(67.38 126.28) rotate(-13.378)" fill="#e8bc2d" font-size="11" font-family="SegoeUI-Bold, Segoe UI" font-weight="700"><tspan x="0" y="0">NFC</tspan></text>
          </g>
        </g>
      </g>
    </g>
  </g>
</svg>
