<svg xmlns="http://www.w3.org/2000/svg" xmlns:xlink="http://www.w3.org/1999/xlink" width="163" height="99" viewBox="0 0 163 99">
 
  <g id="Group_14766" data-name="Group 14766" transform="translate(-64 -203)">
    <g id="Group_14765" data-name="Group 14765" transform="translate(64 202.778)">
      <g id="Group_27" data-name="Group 27" transform="translate(0 0)">
        <g id="Group_23" data-name="Group 23" transform="translate(0 0)">
          <g id="Group_22" data-name="Group 22" transform="translate(0 0)">
            <g id="Rectangle_2283" data-name="Rectangle 2283" transform="translate(0 0.221)" fill="none" stroke="#e1be4d" stroke-linecap="round" stroke-width="4">
              <rect width="163" height="99" rx="4" stroke="none"/>
              <rect x="2" y="2" width="159" height="95" rx="2" fill="none"/>
            </g>
            <path id="Path_157" data-name="Path 157" d="M-2062.236,3192.983h46.491" transform="translate(2134.505 -3171.287)" fill="none" stroke="#e1be4d" stroke-linecap="round" stroke-width="4"/>
            <path id="Path_158" data-name="Path 158" d="M-2062.236,3192.983h24.707" transform="translate(2134.505 -3158.421)" fill="none" stroke="#e1be4d" stroke-linecap="round" stroke-width="4"/>
            <path id="Path_159" data-name="Path 159" d="M-2062.236,3192.983h37.09" transform="translate(2134.505 -3147.7)" fill="none" stroke="#e1be4d" stroke-linecap="round" stroke-width="4"/>
            <path id="Path_160" data-name="Path 160" d="M-2062.236,3192.983h9.145" transform="translate(2143.906 -3121.968)" fill="none" stroke="#e1be4d" stroke-linecap="round" stroke-width="4"/>
            <path id="Path_161" data-name="Path 161" d="M-2062.236,3192.983h9.145" transform="translate(2162.45 -3121.968)" fill="none" stroke="#e1be4d" stroke-linecap="round" stroke-width="4"/>
            <path id="Path_163" data-name="Path 163" d="M-2062.236,3192.983h9.145" transform="translate(2177.92 -3113.391)" fill="none" stroke="#e1be4d" stroke-linecap="round" stroke-width="4"/>
            <path id="Path_162" data-name="Path 162" d="M-2062.236,3192.983h16.449" transform="translate(2180.996 -3121.968)" fill="none" stroke="#e1be4d" stroke-linecap="round" stroke-width="4"/>
            <path id="Path_164" data-name="Path 164" d="M-2062.236,3192.983h21.242" transform="translate(2150.354 -3113.391)" fill="none" stroke="#e1be4d" stroke-linecap="round" stroke-width="4"/>
          </g>
        </g>
      </g>
      <g id="Group_14654" data-name="Group 14654" transform="translate(9.67 18.914)">
        <g id="Group_14653" data-name="Group 14653" >
          <path id="Path_7265" data-name="Path 7265" d="M61.265,60.088c-.1-.5-.715-.634-1.118-.807C55.183,57.228,49.77,55.8,44.784,53.764a3,3,0,0,1-1.839-2.392c-.271-2.4.184-5.327.029-7.788,2.56-2.692,3.309-6.2,3.972-9.737a7.806,7.806,0,0,0,4.2-6.687c.121-1.77.231-4.174-1.343-5.315-.536-.392-1.067-.38-1.585-.715a22.125,22.125,0,0,0-.282-8.054C43.648-4.1,18.288-4.445,13.52,12.591a22.306,22.306,0,0,0-.421,8.74c-3.107.2-3.107,3.419-2.946,5.828a7.892,7.892,0,0,0,4.26,6.756c.588,3.6,1.435,7.016,3.909,9.795-.15,2.421.294,5.3.029,7.662a3.005,3.005,0,0,1-1.833,2.392C11.526,55.8,6.107,57.228,1.155,59.281c-.409.173-1.026.306-1.118.807-.19.969.386,1.4,1.309,1.182,5.039-2.162,11.011-3.447,15.94-5.713A5.359,5.359,0,0,0,20.4,50.985V46.056a42.368,42.368,0,0,0,4.058,3.69,5.676,5.676,0,0,0,3.05,1.441,49.644,49.644,0,0,0,6.416-.006c2.467-.208,5.171-3.592,6.976-5.125v4.929a5.359,5.359,0,0,0,3.113,4.572c4.923,2.26,10.913,3.545,15.94,5.713.922.213,1.5-.213,1.314-1.182m-13-36.838a1.1,1.1,0,0,1,.83.709,27.737,27.737,0,0,1-.012,4.208A4.909,4.909,0,0,1,47.3,31.194ZM12.454,29.084a18.4,18.4,0,0,1-.248-5.125.967.967,0,0,1,1.02-.709l.767,7.944a4.377,4.377,0,0,1-1.539-2.11M34.165,49.123c-2.07.334-5.073-.19-7.235-.052a31.435,31.435,0,0,1-8.042-7.846c-2.756-3.96-3.355-12.775-3.741-17.652-.415-5.275-.957-9.714,2-14.4a15.42,15.42,0,0,1,11.3-7.148c10.181-.905,18.315,5.69,18.1,16.171-.121,5.471-.94,15.623-2.825,20.627-.871,2.3-7.241,9.927-9.552,10.3" transform="translate(0 0)" fill="#e1be4d"/>
          <path id="Path_7266" data-name="Path 7266" d="M22.132,40.319l.768,7.943a4.406,4.406,0,0,1-1.541-2.109,18.645,18.645,0,0,1-.248-5.126.974.974,0,0,1,1.022-.708" transform="translate(-8.907 -17.069)" fill="#e1be4d"/>
          <path id="Path_7267" data-name="Path 7267" d="M82.055,48.273l.959-7.945a1.091,1.091,0,0,1,.83.71,26.9,26.9,0,0,1-.01,4.211,4.885,4.885,0,0,1-1.778,3.024" transform="translate(-34.751 -17.079)" fill="#e1be4d"/>
        </g>
      </g>
    </g>
  </g>
</svg>
