<svg xmlns="http://www.w3.org/2000/svg" xmlns:xlink="http://www.w3.org/1999/xlink" width="25.943" height="25.929" viewBox="0 0 25.943 25.929">
  <defs>
    <clipPath id="clip-path">
      <rect id="Rectangle_3087" data-name="Rectangle 3087" width="25.943" height="25.929" transform="translate(0 0)" fill="#e1be4d"/>
    </clipPath>
  </defs>
  <g id="Group_14761" data-name="Group 14761" transform="translate(0 0)">
    <g id="Group_14640" data-name="Group 14640" clip-path="url(#clip-path)">
      <path id="Path_7263" data-name="Path 7263" d="M23.835,4.3c-1.95-4.14-6.19-4.15-10.17-4.27-2.47-.08-7.28-.07-9.46,1.02-3.99,2-4.08,6.3-4.19,10.23-.02.72-.02,1.51,0,2.23.07,2.2.2,5.71,1.35,7.6,1.38,2.26,3.29,3.07,5.83,3.39a46.263,46.263,0,0,0,8.32.21,6.6,6.6,0,0,1,7.97-9.98l1.25.71c.05-.57.03-1.14.05-1.7.09-2.47.08-7.23-.95-9.44m-10.22,10.57H6.175A1.457,1.457,0,0,1,5.985,12l7.78-.01a1.457,1.457,0,0,1-.15,2.88m5.17-6.02-12.76-.01a1.454,1.454,0,0,1,.11-2.87l12.5-.01a1.456,1.456,0,0,1,.15,2.89" fill="#e1be4d"/>
      <path id="Path_7264" data-name="Path 7264" d="M24.955,17.719a5.164,5.164,0,1,0-4.52,8.21h.7a5.2,5.2,0,0,0,3.82-8.21m-5.01-.26a1.58,1.58,0,0,1,1.6-.07,1.726,1.726,0,0,1,.08,1.55,1.591,1.591,0,0,1-1.63.08,1.813,1.813,0,0,1-.05-1.56m1.78,6.14a1.047,1.047,0,0,1-.91.71,1.018,1.018,0,0,1-.99-.84,18.451,18.451,0,0,1,.01-2.88.988.988,0,0,1,.84-.78.976.976,0,0,1,1.07.87,17.745,17.745,0,0,1-.02,2.92" fill="#e1be4d"/>
    </g>
  </g>
</svg>
