<svg xmlns="http://www.w3.org/2000/svg" xmlns:xlink="http://www.w3.org/1999/xlink" width="143" height="154.483" viewBox="0 0 143 154.483">
  
  <g id="Group_14763" data-name="Group 14763" transform="translate(-94 -289.517)">
    <g id="Group_58" data-name="Group 58" transform="translate(52 109)">
      <g id="Group_14654" data-name="Group 14654" transform="translate(75.817 225.857)">
        <g id="Group_14653" data-name="Group 14653" >
          <path id="Path_7265" data-name="Path 7265" d="M74.872,73.433c-.12-.613-.874-.775-1.367-.986C67.44,69.939,60.824,68.2,54.73,65.7a3.667,3.667,0,0,1-2.247-2.924c-.331-2.938.225-6.51.035-9.518,3.128-3.29,4.044-7.574,4.854-11.9A9.539,9.539,0,0,0,62.5,33.191c.148-2.163.282-5.1-1.642-6.5-.655-.479-1.3-.465-1.937-.874a27.039,27.039,0,0,0-.345-9.842C53.342-5.016,22.35-5.432,16.523,15.387a27.261,27.261,0,0,0-.514,10.681c-3.8.24-3.8,4.178-3.6,7.123.254,3.875,1.959,6.263,5.206,8.257.719,4.4,1.754,8.574,4.777,11.97-.183,2.959.359,6.475.035,9.363a3.673,3.673,0,0,1-2.24,2.924c-6.1,2.494-12.724,4.234-18.776,6.742-.5.211-1.254.373-1.367.986-.232,1.184.472,1.7,1.6,1.444C7.8,72.236,15.1,70.664,21.124,67.9a6.549,6.549,0,0,0,3.8-5.587V56.285a51.778,51.778,0,0,0,4.96,4.509,6.936,6.936,0,0,0,3.727,1.761,60.669,60.669,0,0,0,7.841-.007c3.015-.254,6.32-4.389,8.525-6.263v6.024a6.549,6.549,0,0,0,3.8,5.587c6.017,2.762,13.337,4.333,19.48,6.982,1.127.261,1.832-.261,1.606-1.444M58.985,28.414A1.343,1.343,0,0,1,60,29.28a33.9,33.9,0,0,1-.014,5.143,6,6,0,0,1-2.177,3.7ZM15.22,35.544a22.485,22.485,0,0,1-.3-6.263,1.182,1.182,0,0,1,1.247-.867l.937,9.708a5.35,5.35,0,0,1-1.881-2.579M41.753,60.033c-2.529.409-6.2-.232-8.842-.063a38.417,38.417,0,0,1-9.828-9.589c-3.368-4.84-4.1-15.612-4.572-21.573-.507-6.446-1.17-11.871,2.445-17.6A18.845,18.845,0,0,1,34.764,2.473C47.206,1.367,57.146,9.427,56.879,22.235c-.148,6.686-1.148,19.093-3.452,25.208-1.064,2.811-8.849,12.132-11.674,12.59" transform="translate(0 0)" fill="#e1be4d"/>
          <path id="Path_7266" data-name="Path 7266" d="M22.377,40.323l.938,9.708a5.384,5.384,0,0,1-1.883-2.578,22.787,22.787,0,0,1-.3-6.265,1.19,1.19,0,0,1,1.248-.865" transform="translate(-6.214 -11.908)" fill="#e1be4d"/>
          <path id="Path_7267" data-name="Path 7267" d="M82.055,50.037l1.172-9.709a1.333,1.333,0,0,1,1.014.867,32.868,32.868,0,0,1-.013,5.146,5.97,5.97,0,0,1-2.173,3.7" transform="translate(-24.245 -11.916)" fill="#e1be4d"/>
        </g>
      </g>
    </g>
    <g id="upload-file-2-svgrepo-com" transform="translate(219.447 187.711)">
      <path id="Path_7269" data-name="Path 7269" d="M24.909,62.308V13m0,0L40.317,28.409M24.909,13,9.5,28.409" transform="translate(-44.764 91.635)" fill="none" stroke="#e1be4d" stroke-linecap="round" stroke-linejoin="round" stroke-width="4"/>
    </g>
    <g id="Ellipse_509" data-name="Ellipse 509" transform="translate(94 313)" fill="rgba(255,255,255,0)" stroke="#e1be4d" stroke-width="3">
      <ellipse cx="71.5" cy="65.5" rx="71.5" ry="65.5" stroke="none"/>
      <ellipse cx="71.5" cy="65.5" rx="70" ry="64" fill="none"/>
    </g>
  </g>
</svg>
