<svg xmlns="http://www.w3.org/2000/svg" xmlns:android="http://schemas.android.com/apk/res/android" width="1024dp" height="1024dp" viewportWidth="1024" viewportHeight="1024">
	<path d="M0,0C337.9,0 675.8,0 1024,0C1024,337.9 1024,675.8 1024,1024C686.1,1024 348.2,1024 0,1024C0,686.1 0,348.2 0,0Z" fill="#00000000" fill-opacity="0"/>
	<path d="M513,362.6C513.7,362.6 514.4,362.6 515.1,362.6C528.5,362.6 541.1,364.4 554,368C554.7,368.2 555.5,368.4 556.2,368.6C574.8,373.9 591.8,383.3 607,395C608,395.7 608.9,396.5 609.9,397.2C615.1,401.3 615.1,401.3 617,403C617,403.7 617,404.3 617,405C617.6,405.2 618.1,405.5 618.7,405.7C621.5,407.3 623.2,409.1 625.3,411.5C626,412.3 626.7,413.1 627.4,413.9C629,416 629,416 629,418C629.7,418 630.3,418 631,418C640.5,429.8 648.4,444 654,458C654.7,459.8 654.7,459.8 655.5,461.7C668.9,496.3 666.9,535.5 652.6,569.4C643.8,589 632.6,605.7 617.4,620.9C616.7,621.6 616,622.3 615.3,623C610.3,628 610.3,628 608,628C608,628.7 608,629.3 608,630C606.6,631.2 606.6,631.2 604.7,632.5C603.6,633.2 603.6,633.2 602.5,634C580.9,648.1 558.8,658.5 533,662C532.2,662.1 531.4,662.3 530.5,662.4C491.8,667.5 451.2,656.7 420.2,633.1C390.9,610.1 371.9,580 363,544C362.8,543.3 362.6,542.6 362.5,541.9C357.5,522.1 358.4,499.8 363,480C363.3,478.8 363.5,477.6 363.8,476.3C372.4,439.4 397.3,406.4 429,386C442.4,377.7 456.2,371.4 471.4,367.3C472.2,367.1 472.9,366.9 473.6,366.6C486.5,363.3 499.8,362.6 513,362.6Z" fill="#00000000" fill-opacity="0"/>
	<path d="M513,362.6C513.7,362.6 514.4,362.6 515.1,362.6C528.5,362.6 541.1,364.4 554,368C554.7,368.2 555.5,368.4 556.2,368.6C574.8,373.9 591.8,383.3 607,395C608,395.7 608.9,396.5 609.9,397.2C615.1,401.3 615.1,401.3 617,403C617,403.7 617,404.3 617,405C617.6,405.2 618.1,405.5 618.7,405.7C621.5,407.3 623.2,409.1 625.3,411.5C626,412.3 626.7,413.1 627.4,413.9C629,416 629,416 629,418C629.7,418 630.3,418 631,418C640.5,429.8 648.4,444 654,458C654.7,459.8 654.7,459.8 655.5,461.7C668.9,496.3 666.9,535.5 652.6,569.4C643.8,589 632.6,605.7 617.4,620.9C616.7,621.6 616,622.3 615.3,623C610.3,628 610.3,628 608,628C608,628.7 608,629.3 608,630C606.6,631.2 606.6,631.2 604.7,632.5C603.6,633.2 603.6,633.2 602.5,634C580.9,648.1 558.8,658.5 533,662C532.2,662.1 531.4,662.3 530.5,662.4C491.8,667.5 451.2,656.7 420.2,633.1C390.9,610.1 371.9,580 363,544C362.8,543.3 362.6,542.6 362.5,541.9C357.5,522.1 358.4,499.8 363,480C363.3,478.8 363.5,477.6 363.8,476.3C372.4,439.4 397.3,406.4 429,386C442.4,377.7 456.2,371.4 471.4,367.3C472.2,367.1 472.9,366.9 473.6,366.6C486.5,363.3 499.8,362.6 513,362.6ZM404,425C380.1,453.4 371,489.4 373,526C373.5,531.8 374.7,537.4 376,543C376.3,544.2 376.6,545.3 376.8,546.6C386.2,582 409.4,612.6 440.7,631.6C455.3,639.7 469.7,644.8 486,648C487.2,648.2 488.4,648.5 489.6,648.7C524.8,655 561.6,645.8 591,626C621.6,604.1 642.9,571.5 649.9,534.4C655.6,499 646.8,462.8 626.2,433.6C621.6,427.3 616.5,421.6 611,416C610.1,415 610.1,415 609.2,414.1C586.3,389.7 550.6,376.7 517.8,375.7C472.6,374.8 434.4,391.2 404,425Z" fill="#0EC047"/>
	<path d="M451.3,549.6C455.3,550 456.4,550.8 458.9,553.9C459.3,554.4 459.7,554.9 460.1,555.5C471.2,568.6 489,576.6 506,578.2C523.5,579.3 541.8,574.5 555.5,563.2C559.4,559.8 563,556.3 566.1,552.2C568,550 568,550 571.1,549.6C574,550 574,550 577,552C577.7,555.4 577.9,556.8 577,560C565.8,576.6 545.7,587.2 526.6,591.3C504,594.8 480.7,589.2 462,576C447.3,564.1 447.3,564.1 445.1,556.9C445,554 445,554 446,551.6C448,550 448,550 451.3,549.6Z" fill="#0FC046"/>
	<path d="M562.3,459.6C565,460 565,460 567.1,462C569.5,465.8 569.6,469.1 569.5,473.4C569.5,474.2 569.5,475.1 569.5,475.9C569.5,477.6 569.5,479.3 569.5,481C569.5,483.6 569.5,486.1 569.5,488.7C569.5,490.4 569.5,492 569.5,493.7C569.5,494.5 569.5,495.2 569.6,496C569.5,499.5 569.3,501.6 567.2,504.5C565,506 565,506 561.4,505.9C558,505 558,505 556,502C555.8,499.3 555.7,496.7 555.7,494C555.7,493.2 555.7,492.4 555.7,491.6C555.7,490 555.7,488.3 555.7,486.7C555.7,484.1 555.7,481.6 555.6,479.1C555.6,477.5 555.6,475.9 555.6,474.3C555.6,473.5 555.6,472.8 555.6,472C555.7,466.9 556.5,460.6 562.3,459.6Z" fill="#0CBF44"/>
	<path d="M467,461C469.7,464.6 469.3,469 469.3,473.3C469.3,474.1 469.3,475 469.4,475.8C469.4,477.5 469.4,479.2 469.4,480.9C469.4,483.5 469.4,486.1 469.4,488.7C469.5,490.3 469.5,492 469.5,493.7C469.5,494.4 469.5,495.2 469.5,496C469.5,499.6 469.3,501.6 467.1,504.5C465,506 465,506 462.4,506.4C459.5,505.9 458.8,505.3 457,503C456.7,500 456.6,497.1 456.6,494.1C456.6,492.7 456.6,492.7 456.6,491.4C456.5,489.6 456.5,487.7 456.6,485.8C456.6,483 456.5,480.2 456.5,477.3C456.5,475.5 456.5,473.7 456.5,471.9C456.5,471.1 456.5,470.2 456.5,469.4C456.5,463.5 456.5,463.5 458.8,460.9C461.9,459.6 463.8,460 467,461Z" fill="#0DBE43"/>
	<path d="M249,301C251.5,303.1 251.5,303.1 253,306C253,309.8 252.8,312 250.3,315C247.1,316.4 245.3,316 242,315C239.6,313.3 239.6,313.3 238,311C237.4,307.4 237.5,305.7 239.6,302.6C243,300.4 245,300.4 249,301Z" fill="#0DC045"/>
	<path d="M410,825C412,826.6 412,826.6 413,829C412.9,832.7 412.8,835.1 410.4,838C406.9,839.5 404.6,839 401,838C399,836.4 399,836.4 398,834C398.1,830.3 398.2,827.9 400.6,825C404.1,823.5 406.4,824 410,825Z" fill="#0FBF44"/>
	<path d="M358,803C360,804.7 360,804.7 361,807C360.9,810.6 360.4,812.5 358.3,815.4C356,817 356,817 353,817.6C350,817 350,817 347.6,814.9C345.5,811.1 345.8,809.1 347,805C350.2,801.1 353.4,801.7 358,803Z" fill="#10C045"/>
	<path d="M668,212C670,213.1 670,213.1 671,215C671.2,218.9 670.8,222 668.4,225.1C664.8,226.5 662.6,226 659,225C656.4,222.2 656,220.7 656.1,216.9C657,214 657,214 658.6,212.1C662.1,210.5 664.4,211.1 668,212Z" fill="#0EBE43"/>
	<path d="M700,787C702.7,788.9 703.8,790.4 704.9,793.4C705,796.9 704.3,798.4 702,801C698.6,802.1 698.6,802.1 695,802C692,800 692,800 690,797C690,793.4 690.3,791.1 692.2,788.1C695,786.4 696.9,786.6 700,787Z" fill="#0FBE43"/>
	<path d="M784.6,708.1C788,709 788,709 789.9,710.1C791.7,713.2 791.4,715.6 791,719C789.4,721.4 789.4,721.4 787,723C783.4,723.6 781.7,723.5 778.6,721.4C776.4,718.1 776.4,716 777,712C779.3,708.4 780.3,708 784.6,708.1Z" fill="#0FBE43"/>
	<path d="M243.6,708C247,709 247,709 249,710.6C250.5,714.1 250,716.4 249,720C246.8,722.6 245.4,722.9 242,723.5C239,723 239,723 236.6,720.9C235,718 235,718 235,714.9C236.7,710 238.1,708 243.6,708Z" fill="#0EBE43"/>
	<path d="M838,605C840.4,607.2 840.4,607.2 842,610C842,613.5 841.7,615.2 839.3,617.9C836.3,619.4 834.4,619.5 831,619C828.6,617.4 828.6,617.4 827,615C826.5,611.5 826.6,609.7 828.3,606.7C831.4,603.6 834.1,603.7 838,605Z" fill="#0EBE43"/>
	<path d="M741,260C743.5,262.3 743.9,263.7 744.5,267C744,270 744,270 741.9,272.4C738.1,274.5 736.1,274.2 732,273C730,271.3 730,271.3 729,269C729.1,265.7 729.4,263.8 731.4,261.2C734.9,258.6 736.9,258.9 741,260Z" fill="#0EBE43"/>
	<path d="M288,259C290.9,261.1 290.9,261.1 293,264C293.1,267.9 292.9,270 290.3,272.9C287.4,274.3 286.1,274.7 283,274C280.1,271.4 280.1,271.4 278,268C278,264.7 278.4,262.9 280.2,260.1C283,258.4 284.8,258.5 288,259Z" fill="#0FBE44"/>
	<path d="M512.6,840.9C516,842 516,842 518,843.6C519.5,847.1 519,849.4 518,853C516.3,855 516.3,855 514,856C510.9,855.9 508.8,855.5 506.2,853.8C504.4,851.1 504,849.2 504,846C506.6,842.1 507.9,841 512.6,840.9Z" fill="#0DBF42"/>
	<path d="M623,824C625.4,825.6 625.4,825.6 627,828C627.5,832.4 627.5,834.3 625,838C620.9,839.2 618.9,839.4 615.1,837.5C613,835 613,835 612.4,831.5C613,828 613,828 614.6,825.6C617.7,823.5 619.4,823.4 623,824Z" fill="#0EBF43"/>
	<path d="M676,802C678.4,803.6 678.4,803.6 680,806C680.6,809.8 680.3,811.5 678.4,814.9C676,817 676,817 673,817.6C670,817 670,817 667.6,815.5C665.2,811.7 665.4,809.5 666,805C668.8,801.6 671.8,801.4 676,802Z" fill="#0DBE41"/>
	<path d="M332,787C334.4,788.6 334.4,788.6 336,791C336.6,794.5 336.6,794.5 336,798C333.9,800.5 333.9,800.5 331,802C327.4,802.1 327.4,802.1 324,801C321.9,798.3 321.9,798.3 321,795C322.5,788.7 325.5,786.1 332,787Z" fill="#0CBD41"/>
	<path d="M187,431C189.7,433.2 189.9,434.6 190.4,438C190,441 190,441 188.4,443.4C185.2,445.5 183.7,445.7 180,445C177.1,442.9 177.1,442.9 175,440C175,436.8 175.5,434.9 177.1,432.1C180.2,430.3 183.4,430.3 187,431Z" fill="#0EC045"/>
	<path d="M232,325C233.9,326.1 233.9,326.1 235,328C235.5,330.8 235.5,333.2 235,336C233.4,338.1 233.4,338.1 231,339C227.6,338.9 225.1,338.6 222.1,336.9C220.3,333.7 220.4,330.5 221,327C224.1,323 227.4,323.8 232,325Z" fill="#0DBE42"/>
	<path d="M311,240C313.4,241.6 313.4,241.6 315,244C315.5,248.4 315.5,250.3 313,254C309.7,255 309.7,255 306,255C302.5,252.6 301.2,251.1 300.4,246.9C301.6,240.9 305.1,239 311,240Z" fill="#0EBE43"/>
	<path d="M214,659C216.1,660.6 216.1,660.6 217,663C216.9,666.8 216.8,669.1 214.3,671.9C211.2,673.4 209.4,673.6 206,673C203.6,670.9 203.6,670.9 202,668C202.1,664.3 202.1,664.3 203,661C206.8,658.5 209.6,658.3 214,659Z" fill="#0DBE44"/>
	<path d="M215,349C217.3,350.6 217.3,350.6 219,353C219.6,357 219.6,359.1 217.4,362.4C214.3,364.5 212.6,364.6 209,364C206.6,362.4 206.6,362.4 205,360C204.4,356.5 204.4,356.5 205,353C208,349.6 210.5,348.1 215,349Z" fill="#0CBE41"/>
	<path d="M492,841C494.4,842 494.4,842 496,844C496.7,847.5 496.7,850.7 494.9,853.9C491.9,855.6 489.5,856 486,856C483,853.5 482.1,851.8 481.5,847.9C482,845 482,845 483.6,842.6C486.7,840.5 488.3,840.5 492,841Z" fill="#0DBE42"/>
	<path d="M383,815C385,816.1 385,816.1 386,818C386.5,821.9 386.6,824.1 384.4,827.4C381.1,829.6 378.9,829.5 375,829C373.1,828 373.1,828 372,826C371.5,822.4 371.4,819.3 373,816C376.3,814.4 379.4,814.5 383,815Z" fill="#0CBE41"/>
	<path d="M744.6,751C748,752 748,752 749.9,753.7C751.3,756.7 751.5,758.7 751,762C749.4,764.4 749.4,764.4 747,766C743.4,766.6 741.7,766.5 738.6,764.4C736.4,761.1 736.4,759 737,755C739.3,751.4 740.3,751 744.6,751Z" fill="#0CBD3F"/>
	<path d="M765.1,730C768,731 768,731 769.9,732.6C771.4,735.9 771.4,738.4 771,742C769.9,743.9 769.9,743.9 768,745C764.6,745.5 764.6,745.5 761,745C758,742.4 757.1,740.8 756.4,736.9C757,734 757,734 759.1,731.6C762,730 762,730 765.1,730Z" fill="#0CBF44"/>
	<path d="M201,631C203.9,633.1 203.9,633.1 206,636C206,639.7 206,639.7 205,643C201.3,645.5 199.4,645.5 195,645C192.5,643.4 192.5,643.4 191,641C191.1,637.5 191.3,635.1 193.2,632.1C196,630.4 197.8,630.5 201,631Z" fill="#0BBE41"/>
	<path d="M178.1,547.9C181.8,549.3 183.1,550.5 185,554C185.1,557.1 185.1,557.1 184,560C181.2,562.5 179.7,563 175.9,562.9C173,562 173,562 171.1,560.3C169.6,557.2 169.4,555.4 170,552C172.6,549 174,548 178.1,547.9Z" fill="#10BF44"/>
	<path d="M174.5,517.9C178.6,519.2 179.9,520.2 182,524C182.1,527.6 181.3,528.7 178.8,531.4C176,533 176,533 172.9,532.9C168.5,531.5 168.5,531.5 167,529C166.5,525.1 166.4,522.9 168.6,519.5C171,518 171,518 174.5,517.9Z" fill="#0EBF43"/>
	<path d="M177,488C179.4,489.6 179.4,489.6 181,492C181.6,495.7 181.5,497.3 179.4,500.4C176.3,502.5 174.7,502.6 171,502C168,499.9 167.1,498.4 166,495C166,492 166,492 167.5,489.6C170.9,487.4 173,487.4 177,488Z" fill="#10BF45"/>
	<path d="M203,376C205.9,378.1 205.9,378.1 208,381C208,384.7 208,384.7 207,388C203.5,390.3 202.1,390.5 198,390C195.1,388.4 195.1,388.4 193,386C192.4,383 192.4,383 193,380C195.8,375.9 198.2,375.1 203,376Z" fill="#0CBE43"/>
	<path d="M761,280C763.4,281.6 763.4,281.6 765,284C765.6,287.5 765.6,287.5 765,291C762.9,293.5 762.9,293.5 760,295C756.8,294.9 754.9,294.5 752.1,292.9C750.3,289.8 750.6,287.5 751,284C753.7,279.9 756.2,279.2 761,280Z" fill="#0DBE42"/>
	<path d="M717,241C719.4,242.6 719.4,242.6 721,245C721.6,248.5 721.6,248.5 721,252C718.9,254.5 718.9,254.5 716,256C712.8,255.9 710.9,255.5 708.1,253.9C706.3,250.8 706.6,248.5 707,245C709.7,240.9 712.2,240.2 717,241Z" fill="#0CBD42"/>
	<path d="M588,182C590.5,185.7 590.5,187.6 590,192C588.4,194.5 588.4,194.5 586,196C582.2,196 580,195.8 577.1,193.3C575.6,190.2 575.4,188.4 576,185C579.7,180.6 582.6,180.5 588,182Z" fill="#0DBE41"/>
	<path d="M282.1,751C286.5,752.5 286.5,752.5 288,755C288.5,758.9 288.6,761.1 286.4,764.4C283.3,766.5 281.6,766.6 278,766C274.9,763.9 274.1,762.7 273.4,759.1C274.4,754 276.8,751 282.1,751Z" fill="#0DBE43"/>
	<path d="M262.1,729.9C265,731 265,731 266.9,732.6C268.5,736.1 267.9,738.4 267,742C265.9,743.9 265.9,743.9 264,745C260.6,745.4 258.1,745.6 255.1,743.9C253.3,740.8 253.5,738.5 254,735C256.5,731.4 257.7,730 262.1,729.9Z" fill="#0BBE41"/>
	<path d="M829,631C830.9,632 830.9,632 832,634C832.5,637.6 832.6,640.7 831,644C827.7,645.6 824.6,645.7 821,645C818.3,642.8 818.1,641.4 817.6,638C818,635 818,635 819.6,632.6C822.9,630.4 825.1,630.5 829,631Z" fill="#0CBD41"/>
	<path d="M855,487C857.4,489.1 857.4,489.1 859,492C859,495.5 858.7,497.2 856.3,499.9C853.3,501.4 851.4,501.5 848,501C845.6,499.4 845.6,499.4 844,497C843.6,493.9 843.6,493.9 844,491C847,487 850.2,486.4 855,487Z" fill="#0FBF43"/>
	<path d="M852,459C854,461.1 854,461.1 855,464C854.1,470.1 854.1,470.1 851.3,472.5C848.1,473.2 846,472.9 843,472C841.1,470.4 841.1,470.4 840,468C840,464.4 840,464.4 841,461C844.6,457.7 847.4,457.4 852,459Z" fill="#0EBF44"/>
	<path d="M812,348.4C815,349 815,349 817.4,351.1C819,354 819,354 819.1,357.6C818,361 818,361 815.3,363.1C811.3,364.2 809.7,363.9 806,362C804.1,359.7 804,358.5 804.1,355.5C805.6,351.2 807.5,349.3 812,348.4Z" fill="#0EBE43"/>
	<path d="M333.6,224.1C337,225 337,225 338.9,226.1C340.7,229.2 340.5,231.5 340,235C337.9,237.5 337.9,237.5 335,239C331.8,238.9 329.9,238.5 327.1,236.9C325.3,233.8 325.6,231.5 326,228C328.3,224.4 329.3,224 333.6,224.1Z" fill="#0DBE41"/>
	<path d="M416,189C418.7,191.2 418.9,192.6 419.4,196C419,199 419,199 417.4,201.4C414.1,203.6 411.9,203.5 408,203C406.1,202 406.1,202 405,200C404.5,196.4 404.4,193.3 406,190C409.3,188.4 412.4,188.3 416,189Z" fill="#0EBE41"/>
	<path d="M444,182C446.5,185.7 446.5,187.6 446,192C444.4,194.5 444.4,194.5 442,196C438.2,196 436,195.8 433,193.4C431.5,189.9 432,187.6 433,184C436.2,180.1 439.4,180.8 444,182Z" fill="#0CBE40"/>
	<path d="M559,177C560.9,178.2 560.9,178.2 562,180C562.5,182.9 562.5,182.9 562,186C559.9,188.9 559.9,188.9 557,191C553.8,191 551.9,190.5 549.1,188.9C547.3,185.8 547.3,182.6 548,179C551.1,175 554.4,175.8 559,177Z" fill="#0EBE41"/>
	<path d="M648.1,814.7C650,815 650,815 651.9,816.2C653.3,818.6 653.9,820.2 654,823C652.9,825.3 651.8,827.2 650,829C646.1,829.4 643.8,829.6 640.6,827.4C638.5,824.3 638.5,822.6 639,819C640.9,814.5 643.7,814.4 648.1,814.7Z" fill="#0CBE40"/>
	<path d="M195,404C197,405 197,405 198,407C198.5,409.8 198.5,412.2 198,415C195.8,417.7 194.4,417.9 191,418.4C188,418 188,418 185.6,416.4C183.4,413.1 183.5,410.9 184,407C186.2,402.8 190.8,403.4 195,404Z" fill="#0BBE41"/>
	<path d="M827,376C829.5,378.1 829.5,378.1 831,381C831,384.5 830.6,386.2 828.4,388.9C824.9,390.5 822.6,389.9 819,389C817.1,387.8 817.1,387.8 816,386C815.5,382.4 815.6,380.7 817.6,377.6C821,375.4 823,375.4 827,376Z" fill="#0FC049"/>
	<path d="M794.9,323.6C797.8,323.7 798.7,323.8 801.1,325.6C802.4,329.1 801.9,331.4 801,335C799.9,336.9 799.9,336.9 798,338C792,338.6 792,338.6 789.1,336.8C787.8,334.7 787.2,333.4 787,331C788.5,326 789.5,324.1 794.9,323.6Z" fill="#0CBE40"/>
	<path d="M265.6,280.1C270.5,281.4 270.5,281.4 272,284C272.5,286.9 272.5,286.9 272,290C269.9,292.9 269.9,292.9 267,295C263.8,295 261.9,294.5 259.1,292.9C257.3,289.8 257.6,287.5 258,284C260.3,280.4 261.3,280 265.6,280.1Z" fill="#0DBE42"/>
	<path d="M642,199C643.9,200 643.9,200 645,202C645.5,205.6 645.6,208.7 644,212C640.7,213.6 637.6,213.5 634,213C632,211.9 632,211.9 631,210C630.5,206.1 630.4,203.9 632.6,200.6C635.9,198.4 638.1,198.5 642,199Z" fill="#0BBF40"/>
	<path d="M615,189C617.5,191.1 617.5,191.1 619,194C618.9,197.2 618.5,199.1 616.9,201.9C613.8,203.7 611.5,203.4 608,203C605.6,201.4 605.6,201.4 604,199C603.4,195.4 603.5,193.7 605.6,190.6C609,188.4 611,188.4 615,189Z" fill="#0DBE41"/>
	<path d="M468.6,175C472,176 472,176 473.9,177.7C475.4,180.8 475.6,182.6 475,186C472.9,188.4 472.9,188.4 470,190C466.8,189.9 464.9,189.5 462.1,187.9C460.3,184.8 460.6,182.5 461,179C463.3,175.4 464.3,175 468.6,175Z" fill="#0CBE41"/>
	<path d="M465,839C467,841 467,841 467.3,844.9C467.2,847.5 467.2,848.7 465.9,850.9C463.1,852.5 461.2,853 458,853C455.1,851 455.1,851 453,848C452.9,844.2 453.2,842 455.6,839C459,837.6 461.4,838.1 465,839Z" fill="#0DBE41"/>
	<path d="M596,832C598.4,833.6 598.4,833.6 600,836C600.6,839.6 600.5,841.3 598.4,844.4C595.1,846.6 592.9,846.5 589,846C587.1,845 587.1,845 586,843C585.5,839.4 585.3,836.2 587.1,833C590.2,831.4 592.6,831.6 596,832Z" fill="#0DBD41"/>
	<path d="M306,770C308.4,771.6 308.4,771.6 310,774C310.6,777.5 310.6,777.5 310,781C307.9,783.5 307.9,783.5 305,785C301.5,785 299.8,784.7 297.1,782.3C295.6,779.3 295.5,777.4 296,774C298.8,769.9 301.2,769.2 306,770Z" fill="#0BBE41"/>
	<path d="M228,684C230.4,685.6 230.4,685.6 232,688C232.5,691.4 232.4,693.3 230.9,696.3C228.2,698.7 226.5,699 223,699C220.1,697.5 220.1,697.5 218,695C217.4,691 217.4,689 219.6,685.6C222.7,683.5 224.4,683.4 228,684Z" fill="#0BBE41"/>
	<path d="M819,659C821.1,660.6 821.1,660.6 822,663C822,666.6 822,666.6 821,670C818.3,672.4 816.9,673 813.4,672.9C810.7,671.9 809.6,671.3 808,669C807.1,666.1 807.1,666.1 807,663C810,658 813.7,658.3 819,659Z" fill="#0DBE43"/>
	<path d="M846,577C847.9,578.1 847.9,578.1 849,580C849.4,583.4 849.6,585.9 848,588.9C844.8,590.7 841.6,590.5 838,590C836,589 836,589 835,587C834.5,584.2 834.5,581.8 835,579C838.1,575 841.4,575.8 846,577Z" fill="#0BBD41"/>
	<path d="M851,548C853.8,549.5 854.8,550.4 855.9,553.4C856,556.7 854.9,558.3 853,561C852,562 852,562 848.7,562.3C845,562 845,562 842.6,560.9C841,559 841,559 840.5,555.6C841,552 841,552 842.6,549.6C845.7,547.5 847.4,547.5 851,548Z" fill="#0BBE40"/>
	<path d="M855,518C857.5,520.1 857.5,520.1 859,523C859,526.5 858.6,528.2 856.4,530.9C852.9,532.5 850.6,531.9 847,531C845.1,529.8 845.1,529.8 844,528C843.5,524.4 843.6,522.7 845.6,519.6C849,517.4 851,517.4 855,518Z" fill="#0EBE41"/>
	<path d="M177.6,458.9C181,460 181,460 183,461.6C184.4,465 183.9,467.4 183,471C181,473 181,473 177.1,473.3C174.5,473.2 173.3,473.2 171.1,471.9C169.5,469.1 169,467.2 169,464C171.6,460.1 172.9,459 177.6,458.9Z" fill="#0BBD40"/>
	<path d="M691,225C693.9,227.1 693.9,227.1 696,230C696.1,233.6 695.7,235.2 693.3,237.9C690.2,239.4 688.4,239.6 685,239C682.6,236.9 682.6,236.9 681,234C681.1,230.3 681.1,230.3 682,227C685.5,224.7 686.9,224.4 691,225Z" fill="#0DBD43"/>
	<path d="M568,838C570.7,840.2 570.9,841.6 571.4,845C571,848 571,848 569.4,850.4C566.3,852.5 564.7,852.6 561,852C558.6,850.4 558.6,850.4 557,848C556.6,844.6 556.4,842.2 558,839.1C561.2,837.3 564.4,837.3 568,838Z" fill="#0CBE40"/>
	<path d="M846,431C848,433 848,433 848.3,436.9C848.2,439.4 848.1,440.8 847,443C843.7,444.6 840.6,444.7 837,444C835,442.4 835,442.4 834,440C833.6,435.9 833.7,434.5 836,431C839.7,429.8 842.2,430.2 846,431Z" fill="#0BBE40"/>
	<path d="M540,841C542.4,842.1 542.4,842.1 544,844C544.6,848 544.6,850.1 542.4,853.4C539.3,855.5 537.6,855.6 534,855C531.6,853.4 531.6,853.4 530,851C529.4,847.3 529.5,845.7 531.6,842.6C534.7,840.5 536.3,840.5 540,841Z" fill="#0ABE41"/>
	<path d="M435,832C437.4,833.6 437.4,833.6 439,836C439.5,839.3 439.3,841.3 438,844.4C435.3,846.6 433.3,846.5 429.9,846.3C428,846 428,846 426,844.9C424.4,841.8 424.6,839.4 425,836C427.7,831.9 430.2,831.2 435,832Z" fill="#0CBD41"/>
	<path d="M723.1,769.9C726,771 726,771 727.9,773.1C729.3,776.9 729,779.2 728,783C724.5,785.3 723.1,785.5 719,785C716.6,783.4 716.6,783.4 715,781C714.4,777.5 714.4,777.5 715,774C717.7,770.9 719,770 723.1,769.9Z" fill="#0EBE44"/>
	<path d="M798.8,683.8C802,684 802,684 804.4,684.9C806.7,687.9 806.6,690.3 806.5,693.9C806,696 806,696 803.8,698.1C800.6,699.1 799.1,699.2 796,698C793.7,696.4 793.1,695.2 792.1,692.6C792,689.2 793,687.7 795,685C796,684 796,684 798.8,683.8Z" fill="#0DBE41"/>
	<path d="M194,605C196.5,607.1 196.5,607.1 198,610C198.1,613.1 198.1,613.1 197,616C194.5,618.1 192.6,618.9 189.4,619.5C187,619 187,619 184.7,616.8C182.9,613.8 182.3,612.5 183,609C186,604.6 188.9,604.2 194,605Z" fill="#0CBE40"/>
	<path d="M834.6,403.1C839.5,404.4 839.5,404.4 841,407C841.4,410.3 841.3,412.3 840,415.4C837.4,417.5 835.2,417.6 831.9,417.5C830,417 830,417 827.4,414.8C826,412 826,412 826,409.4C827.9,404.8 829.4,403 834.6,403.1Z" fill="#0FBF43"/>
	<path d="M500,173C502.4,174.6 502.4,174.6 504,177C504.5,180.4 504.4,182.3 502.9,185.3C500.2,187.7 498.6,188.1 495,188C491.6,185.6 490.2,184.1 489.4,179.9C490.6,173.9 494.1,172 500,173Z" fill="#0BBE3F"/>
	<path d="M528,173C530.4,175.1 530.4,175.1 532,178C532.1,181.6 532.1,181.6 531,185C528.3,187.4 526.9,188 523.4,187.9C520.7,186.9 519.5,186.4 518,184C517.5,180.1 517.4,177.9 519.6,174.6C522.7,172.5 524.3,172.3 528,173Z" fill="#0CBE3F"/>
	<path d="M780,301C782.4,302.1 782.4,302.1 784,304C784.6,308 784.6,310.1 782.4,313.4C779.3,315.5 777.6,315.6 774,315C771.6,313.4 771.6,313.4 770,311C769.4,307.3 769.5,305.7 771.6,302.6C774.7,300.5 776.3,300.5 780,301Z" fill="#0BBD3F"/>
	<path d="M362,211C364.7,212.6 365,213.9 365.9,216.9C366,220 366,220 364.5,222.9C362,225 362,225 358.5,225.6C355,225 355,225 352.5,223.4C351,221 351,221 351.1,217.4C352,214 352,214 353.1,212.1C356.1,210.4 358.6,210.6 362,211Z" fill="#0ABE3E"/>
	<path d="M389,200C391,202 391,202 391.3,205.9C391.2,208.4 391.1,209.8 389.9,212C386.8,213.6 384.4,213.4 381,213C378.6,211.4 378.6,211.4 377,209C376.4,206 376.4,206 377,203C380.7,198.6 383.6,198.6 389,200Z" fill="#0ABE3E"/>
	<path d="M188,578C190,580 190,580 190.3,583.4C190,587 190,587 188.9,588.9C185.9,590.6 183.5,590.9 180,591C177.6,589.5 177.6,589.5 176,587C175.3,581 175.3,581 177.3,578.1C181.4,575.4 183.7,576.3 188,578Z" fill="#0BBC3A"/>
	<path d="M188.3,578.4C188.8,579 189.4,579.5 190,580C188.3,586.8 188.3,586.8 186,589C183,589.3 183,589.3 180,589C179.3,588 178.7,587 178,586C179,586 180,586 181,586C181,586.7 181,587.3 181,588C182.3,588 183.6,588 185,588C185,586.7 185,585.4 185,584C183.7,583.3 182.4,582.7 181,582C181.3,580.7 181.7,579.4 182,578C184.9,576.9 185.6,576.7 188.3,578.4Z" fill="#0BC148"/>
	<path d="M827,376C827.3,376.7 827.7,377.3 828,378C826.3,378 824.7,378 823,378C820.6,382.3 820.6,382.3 820,387C822.3,387.3 824.6,387.7 827,388C826.7,388.7 826.3,389.3 826,390C819.7,389.4 819.7,389.4 817.1,387.8C815.4,385 815.6,383.1 816,380C819,375.5 821.8,375.6 827,376Z" fill="#0BBA37"/>
	<path d="M242,301C245.4,300.5 245.4,300.5 249,301C251.8,303.6 252.9,305 253.3,308.8C253.2,309.5 253.1,310.3 253,311C252,311.5 252,311.5 251,312C250.7,309.7 250.3,307.4 250,305C246.6,304 243.5,303.9 240,304C240.7,303 241.3,302 242,301Z" fill="#0FBB36"/>
	<path d="M745,753C744.3,754.9 744.3,754.9 743,757C741.7,757.4 740.3,757.7 739,758C738.7,759 738.3,760 738,761C738.3,758.7 738.6,756.3 739,754C741,753 741,753 745,753Z" fill="#0CC14B"/>
	<path d="M182.3,430.7C183.2,430.8 184.1,430.9 185,431C181.3,434 181.3,434 179,434C178.3,435.6 177.7,437.3 177,439C176.3,438 175.7,437 175,436C178.2,431.1 178.2,431.1 182.3,430.7Z" fill="#08BA33"/>
	<path d="M380,202C380.7,202.7 381.3,203.3 382,204C381.3,204 380.7,204 380,204C380.3,206.3 380.7,208.6 381,211C380,211 379,211 378,211C376.6,208.3 376.9,206 377,203C378,202.7 379,202.3 380,202Z" fill="#15C049"/>
	<path d="M764.7,730.4C765.5,730.6 766.2,730.8 767,731C764.4,732.8 761.7,734.4 759,736C759,734.7 759,733.4 759,732C762,730 762,730 764.7,730.4Z" fill="#0BB935"/>
	<path d="M544,846C545,846.3 546,846.7 547,847C546.7,849.9 546.7,849.9 546,853C545,853.7 544,854.3 543,855C542,854.7 541,854.3 540,854C540.5,853.6 540.9,853.2 541.4,852.8C543.4,850.6 543.6,848.9 544,846Z" fill="#D7F6E6"/>
	<path d="M206,659C206.3,659.7 206.7,660.3 207,661C206,662.5 206,662.5 205,664C204.6,665.7 204.3,667.3 204,669C203.3,668.7 202.7,668.3 202,668C202.3,664.6 202.3,664.6 203,661C204,660.3 205,659.7 206,659Z" fill="#1FC044"/>
	<path d="M621,616C622,616.3 623,616.7 624,617C620.5,620 620.5,620 617,623C616.3,622.7 615.7,622.3 615,622C617,620 619,618 621,616Z" fill="#D2F2E1"/>
	<path d="M428,387C428.3,387.7 428.7,388.3 429,389C426.6,391.4 423.9,393.1 421,395C421.1,393.3 421.1,393.3 422,391C425.1,388.8 425.1,388.8 428,387Z" fill="#0BBC36"/>
	<path d="M755,280C760.5,279.6 760.5,279.6 762.9,281.5C763.2,282 763.6,282.5 764,283C763,283.3 762,283.7 761,284C761,283.3 761,282.7 761,282C759,282 757,282 755,282C755,281.3 755,280.7 755,280Z" fill="#1DC145"/>
	<path d="M643,211C643.7,211.7 644.3,212.3 645,213C642.2,214.8 641.1,215 637.8,214.6C636.8,214.4 635.9,214.2 635,214C635,213.7 635,213.3 635,213C636.1,212.9 637.3,212.7 638.4,212.6C641.8,212.4 641.8,212.4 643,211ZM636,215C637.7,215 639.3,215 641,215C641,215.3 641,215.7 641,216C639.3,216 637.7,216 636,216C636,215.7 636,215.3 636,215Z" fill="#D2F1E3"/>
	<path d="M530,846C532,849 532,849 532,851C533,851.3 534,851.7 535,852C535,852.7 535,853.3 535,854C533.7,853.7 532.4,853.3 531,853C530.7,850.7 530.3,848.4 530,846Z" fill="#0DBA33"/>
	<path d="M715,775C715.3,776.3 715.7,777.6 716,779C716.7,779 717.3,779 718,779C718.7,780.7 719.3,782.3 720,784C716.1,782.1 716.1,782.1 715,781C715,779 715,777 715,775Z" fill="#06B629"/>
</svg>
